<svg xmlns="http://www.w3.org/2000/svg" width="320" height="48" fill="none"><path fill="#23385E" d="M48.68 23.949c0 13.226-10.691 23.949-23.878 23.949-13.188 0-23.878-10.723-23.878-23.95C.924 10.723 11.614 0 24.802 0c13.187 0 23.877 10.722 23.877 23.949z"/><path fill="#FCFCFC" fill-rule="evenodd" d="M45.397 24.031c0 11.454-9.258 20.74-20.678 20.74a20.74 20.74 0 0 1-4.115-.411c.119-.072.157-.21.154-.424-.01-.831-.01-1.662-.009-2.494v-.699c.001-.092.007-.184.014-.302l.011-.213c.116.105.226.201.331.294.22.194.42.369.604.557.372.378.396.683.104 1.136-.084.13-.177.254-.27.378-.134.183-.27.365-.377.563-.145.265-.222.572-.296.87l-.001.003c-.019.075.067.207.143.262.039.03.178-.033.239-.09l.296-.271c.333-.305.667-.61.97-.942.888-.975.82-2.016-.157-2.889-.499-.446-.48-.543-.01-1.037.505-.53 1.008-1.07 1.44-1.658.49-.67.484-1.425.005-2.101a12.368 12.368 0 0 0-1.295-1.508c-.422-.428-.451-.487.018-.88.217-.183.438-.362.658-.541.287-.232.573-.465.853-.705.82-.704.993-1.593.504-2.569-.396-.79-1.048-1.302-1.825-1.68a.979.979 0 0 1-.263-.22c-.038-.04-.075-.08-.114-.115.04-.04.076-.085.114-.128.08-.095.161-.19.262-.25.388-.23.781-.454 1.174-.679a43.93 43.93 0 0 0 2.014-1.198c.826-.53 1.198-1.38 1.308-2.347.09-.786-.04-1.515-.602-2.134l.002-.003.053-.105h1.278l.03-.12a4.33 4.33 0 0 0-.14-.164c-.11-.128-.223-.256-.299-.403-.068-.132-.095-.367-.022-.471.076-.108.295-.149.453-.153.082-.002.166.043.25.088.04.022.082.044.123.061l.65.265c.622.255 1.245.51 1.874.75.164.063.344.086.524.11.082.01.164.022.244.036l.06-.111c-.42-.425-.839-.849-1.18-1.36l.116.04c.085.03.171.06.258.086.245.076.49.154.734.233.62.198 1.24.396 1.868.557.292.074.6.083.907.093a8.2 8.2 0 0 1 .417.019l.02-.086.015-.065a5.139 5.139 0 0 0-.501-.335c-.417-.257-.845-.52-1.083-1.05.294.07.579.14.858.21.61.152 1.195.297 1.784.42 1.004.212 2.16.169 2.58-.063a41.01 41.01 0 0 0-.587-.218c-.42-.154-.837-.306-1.24-.488-2.487-1.122-4.929-2.325-7.22-3.83-1.531-1.007-2.951-.568-3.788 1.066a73.086 73.086 0 0 0-.883 1.795c-.419.876-1.066 1.517-1.973 1.847-.506.183-1.043.29-1.574.384-.088.016-.446.03-.446.03v-.708s.562-.058.694-.09c1.52-.384 2.61-1.255 3.196-2.753.226-.58.509-1.15.855-1.665.874-1.297 2.13-1.697 3.55-1.05a16.851 16.851 0 0 1 2.887 1.651c2.065 1.493 4.296 2.6 6.775 3.157.674.152 1.398.174 2.09.124.775-.056 1.45-.433 2.052-1.04-.192-.012-.378-.02-.558-.027a9.952 9.952 0 0 1-1.076-.082c-2.274-.344-4.437-1.058-6.42-2.223-.952-.56-1.857-1.203-2.761-1.845-.292-.207-.584-.414-.878-.619-1.216-.847-2.524-1.363-4.032-1.255-1.132.081-2.001.586-2.512 1.612-.197.395-.338.818-.48 1.24l-.109.322c-.088.255-.166.512-.245.77-.144.472-.288.942-.486 1.39-.397.895-1.143 1.434-2.082 1.688l-.46.128s-.02-2.508-.003-3.6c.004-.313.215-.259.396-.129.246.176.49.355.735.533.216.158.433.317.65.473.074.053.152.1.258.162l.204.121-.225-.677c-.16-.48-.306-.922-.451-1.364-.192-.58-.171-.636.315-.985.442-.317.882-.636 1.319-.96a.665.665 0 0 0 .262-.376l-.618-.002a49.423 49.423 0 0 0-1.487.007c-.37.009-.59-.145-.7-.488l-.081-.231c-.028-.077-.056-.154-.08-.232-.391-1.206-.49-2.534-.497-3.882a542.084 542.084 0 0 1-.007-2.836c1.284-.25 2.61-.381 3.966-.381 11.42 0 20.678 9.285 20.678 20.74zm-39.244-9.14c.37-.088.84-.322 1.552-.76.494-.305.962-.65 1.43-.996.452-.332.903-.665 1.377-.962.648-.405 1.356-.776 2.087-.97 2.262-.601 3.982.169 4.61 2.58.093.362.204.719.316 1.076.075.241.15.482.22.724.367 1.282 1.167 2.127 2.454 2.49.117.033.564.066.564.066v.567s-.627-.048-.977-.142c-.707-.19-2.26-1.205-2.828-2.437a21.226 21.226 0 0 0-.758-1.583c-.822-1.569-2.237-2.136-3.861-1.443-.94.402-1.867.896-2.692 1.497-1.119.814-3.126 1.908-4.43 2.525.27-.765.582-1.51.936-2.232zm39.9 9.14c0 11.818-9.551 21.398-21.334 21.398-11.782 0-21.334-9.58-21.334-21.398 0-11.817 9.552-21.397 21.334-21.397 11.783 0 21.334 9.58 21.334 21.397zm-31.79-2.344c.084-.793.528-1.245 1.295-1.629 1.275-.638 2.76.014 3.272.613.433.507 1.97 1.577 1.97 1.577v1.025s-.873.605-1.545.337a1.756 1.756 0 0 1-.58-.486 3.818 3.818 0 0 1-.315-.493 5.95 5.95 0 0 0-.202-.337c-.296-.445-.712-.705-1.248-.74-.925-.062-1.46.663-1.096 1.525.116.274.326.563.573.715.76.47 1.536.914 2.312 1.357.27.154.54.308.808.463.02.012.042.02.063.028a.434.434 0 0 1 .05.02c.563.27 1.045.63 1.062 1.32.017.68-.458 1.032-.987 1.333a23.46 23.46 0 0 1-.253.142c-.332.183-.665.367-.949.61-.68.578-.684 1.316-.05 1.951.235.236.501.442.765.648l.107.083c.113.088.233.167.353.246.096.063.192.126.284.194.965.708.99 1.455.094 2.234a23.6 23.6 0 0 0-1.133 1.057c-.56.557-.583 1.283-.045 1.86.204.22.42.426.637.633.177.169.354.337.524.513.188.194.368.406.503.638.266.459.21.842-.16 1.227-.103.108-.216.206-.329.305a6.01 6.01 0 0 0-.27.246c-.492.482-.52.918-.14 1.492.286.43.561.867.805 1.32.046.085.032.203.018.32a1.51 1.51 0 0 0-.014.16c-.043-.018-.088-.032-.133-.046a.685.685 0 0 1-.267-.127 21.9 21.9 0 0 1-1.153-1.155c-.828-.904-.72-2.015.256-2.763.44-.337.464-.55.078-.964-.149-.16-.304-.313-.46-.467-.182-.181-.365-.362-.538-.553a5.498 5.498 0 0 1-.558-.751c-.435-.69-.463-1.413.02-2.07.35-.478.76-.915 1.17-1.35l.223-.238c.304-.326.333-.448-.001-.729-.311-.261-.63-.514-.948-.767-.224-.178-.449-.356-.67-.538-.853-.696-1.025-1.563-.521-2.547.396-.775 1.028-1.28 1.793-1.656.112-.055.204-.154.296-.252a2.67 2.67 0 0 1 .128-.132 2.89 2.89 0 0 1-.126-.148 1.22 1.22 0 0 0-.293-.287 45.252 45.252 0 0 0-1.151-.666c-.712-.403-1.424-.805-2.092-1.271-1.017-.71-1.358-1.813-1.231-3.03zm6.538 1.586v2.888c.23-.117.463-.232.696-.347.536-.265 1.073-.53 1.594-.824.66-.372 1.312-.771 1.907-1.238.286-.225.517-.607.622-.962.194-.661-.274-1.189-.954-1.186-.622.003-1.098.254-1.402.812a9.362 9.362 0 0 1-.333.562c-.584.914-1.23 1.007-2.046.302-.01-.009-.027-.008-.049-.007h-.035zm0-1.025s1.753-1.554 2.073-1.858l-.097-.143c-.146 0-.292 0-.438-.002a26.19 26.19 0 0 0-1.219.012c-.12.005-.339.007-.339.007l.02 1.984zm-2.11-6.777-.1-.058c.058-.184.113-.37.168-.555.13-.436.26-.871.42-1.296.15-.399.094-.644-.274-.88a19.022 19.022 0 0 1-1.108-.792 57.3 57.3 0 0 0-.545-.405l.401-.025c.25-.017.465-.03.68-.04l.167-.007c.296-.013.593-.026.89-.014.356.013.543-.142.642-.481.112-.381.238-.757.365-1.133l.16-.48.11.006.014.13c.01.093.02.186.021.279v1.433c0 .87-.001 1.742.006 2.613.003.4-.142.667-.498.853-.36.188-.713.391-1.066.594l-.452.259zm2.739 16.703c-.21.153-.421.307-.636.467v-4.807c.2.116.401.227.602.338.441.244.877.485 1.284.769.927.644.95 1.5.073 2.227-.422.35-.865.672-1.323 1.006zm-.508 1.828c.172.175.346.348.52.522.408.406.816.812 1.192 1.246.386.447.384.918-.032 1.367-.407.437-.85.838-1.279 1.224-.18.163-.356.322-.526.48v-4.75l.125-.089z" clip-rule="evenodd"/><path fill="#fff" d="M29.621 28.73c0 .116.006.212.019.285a.338.338 0 0 0 .069.166.311.311 0 0 0 .151.079c.067.015.155.024.262.027v.175h-1.489v-.175a1.36 1.36 0 0 0 .258-.027.315.315 0 0 0 .156-.079.29.29 0 0 0 .073-.156c.013-.068.019-.156.019-.263v-1h-1.861v.968c0 .116.006.212.018.285a.338.338 0 0 0 .069.166.312.312 0 0 0 .152.079c.067.015.154.024.262.027v.175h-1.49v-.175a1.32 1.32 0 0 0 .258-.027.315.315 0 0 0 .156-.079.29.29 0 0 0 .074-.156c.012-.068.018-.156.018-.263v-2.148c0-.107-.006-.193-.018-.258a.283.283 0 0 0-.065-.157.221.221 0 0 0-.137-.078 1.377 1.377 0 0 0-.24-.032v-.175h1.398v.175a1.177 1.177 0 0 0-.24.027.263.263 0 0 0-.137.084.378.378 0 0 0-.065.165 2.28 2.28 0 0 0-.013.282v.884h1.86v-.917c0-.107-.005-.193-.018-.258a.284.284 0 0 0-.064-.157.221.221 0 0 0-.138-.078 1.378 1.378 0 0 0-.239-.032v-.175h1.397v.175a1.176 1.176 0 0 0-.239.027.262.262 0 0 0-.138.084.374.374 0 0 0-.064.165c-.01.071-.014.165-.014.282v2.083zm2.07-.139c0 .154.006.275.019.364.012.09.035.159.069.208.036.05.087.081.151.097.068.015.155.024.262.027v.175h-1.489v-.175a1.32 1.32 0 0 0 .258-.027.292.292 0 0 0 .156-.097.402.402 0 0 0 .073-.194 2.56 2.56 0 0 0 .019-.345v-1.871c0-.13-.006-.236-.018-.318a.44.44 0 0 0-.065-.203.235.235 0 0 0-.138-.102.913.913 0 0 0-.239-.041v-.175h1.397v.175a.812.812 0 0 0-.239.037.27.27 0 0 0-.137.11.532.532 0 0 0-.065.208c-.01.089-.014.203-.014.34v1.807z"/><path fill="#fff" fill-rule="evenodd" d="M35.513 27.241c.052-.13.078-.275.078-.438a.746.746 0 0 0-.349-.654c-.23-.157-.556-.235-.979-.235H32.82v.175c.098.006.178.017.24.032a.221.221 0 0 1 .137.079.276.276 0 0 1 .064.156c.013.065.019.15.019.258v2.148c0 .107-.006.195-.019.263a.288.288 0 0 1-.073.156.314.314 0 0 1-.156.079c-.064.015-.15.024-.257.027v.175h1.622v-.175c-.138 0-.25-.006-.336-.018a.402.402 0 0 1-.193-.083.31.31 0 0 1-.087-.166 1.788 1.788 0 0 1-.019-.281v-.89h.414c.257 0 .475-.024.652-.073.181-.05.327-.119.437-.208a.785.785 0 0 0 .248-.327zm-1.424.378h-.327v-1.41c0-.053.026-.079.078-.079h.423c.251 0 .435.057.552.17.12.111.179.297.179.559 0 .27-.075.465-.225.585-.147.117-.374.175-.68.175zm2.548.558h1.227l.188.497c.022.053.039.099.051.139a.53.53 0 0 1 .032.101.488.488 0 0 1 .023.17c0 .071-.03.122-.092.153-.061.03-.173.046-.335.046v.18h1.498v-.18a.822.822 0 0 1-.207-.023.344.344 0 0 1-.156-.102 1.025 1.025 0 0 1-.152-.23 6.436 6.436 0 0 1-.184-.415l-1.043-2.6h-.197l-1.195 3.001c-.028.065-.057.12-.087.166a.416.416 0 0 1-.234.17 1.08 1.08 0 0 1-.18.037v.175h1.117v-.175a.604.604 0 0 1-.276-.046c-.055-.034-.083-.093-.083-.18 0-.03.005-.07.014-.12.01-.049.025-.108.046-.18a10.475 10.475 0 0 1 .225-.585zm1.14-.23h-1.048l.538-1.36.51 1.36zm2.573.23h1.228l.188.497c.021.053.038.099.05.139.016.036.027.07.033.101a.497.497 0 0 1 .023.17c0 .071-.03.122-.092.153-.061.03-.173.046-.336.046v.18h1.498v-.18a.82.82 0 0 1-.206-.023.344.344 0 0 1-.157-.102.992.992 0 0 1-.151-.23 6.388 6.388 0 0 1-.184-.415l-1.043-2.6h-.198l-1.194 3.001c-.028.065-.057.12-.088.166a.416.416 0 0 1-.234.17 1.08 1.08 0 0 1-.18.037v.175h1.117v-.175a.604.604 0 0 1-.275-.046c-.056-.034-.083-.093-.083-.18 0-.03.005-.07.014-.12a1.7 1.7 0 0 1 .046-.18 10.475 10.475 0 0 1 .225-.585zm1.14-.23h-1.047l.537-1.36.51 1.36z" clip-rule="evenodd"/><path fill="#003398" fill-rule="evenodd" d="M81.7 37.247c.524.377 1.008.727 1.495 1.074.068.049.096.089.06.178-.062.159-.108.325-.16.488l-.397 1.246c.07-.049.112-.076.153-.106l1.008-.735c.13-.094.257-.253.394-.263.147-.01.272.166.406.262.378.273.754.55 1.162.848-.027-.09-.042-.144-.059-.197-.164-.515-.326-1.03-.497-1.543-.03-.087-.012-.128.059-.178.264-.184.524-.375.785-.563l.71-.511h-.134c-.567 0-1.133-.002-1.7.002-.09 0-.137-.019-.163-.117-.06-.22-.136-.436-.206-.654l-.358-1.105c-.191.6-.374 1.163-.547 1.728-.035.114-.085.15-.205.149-.586-.007-1.172-.003-1.806-.003zm.026-27.987c.03.07.082.088.122.117.439.317.876.634 1.318.946.087.06.107.114.072.216-.101.29-.19.582-.284.874l-.267.832c.073-.048.112-.071.148-.098.428-.313.86-.622 1.282-.942.105-.08.17-.072.266.005.178.143.367.272.552.407l.878.64c-.192-.598-.37-1.162-.556-1.723-.031-.094-.019-.145.065-.204.45-.318.896-.642 1.342-.965.034-.025.086-.037.096-.105h-.155c-.54 0-1.081-.004-1.622.003-.11.001-.15-.036-.18-.136-.14-.457-.288-.912-.436-1.366-.035-.107-.054-.223-.127-.34-.025.072-.043.12-.058.168-.158.495-.32.988-.47 1.485-.042.141-.1.193-.254.19-.572-.011-1.143-.004-1.731-.004zm21.18.027c-.053-.048-.107-.026-.154-.026-.541-.002-1.082-.006-1.623.002-.122.002-.173-.04-.204-.152-.061-.22-.134-.437-.204-.654-.11-.346-.223-.69-.344-1.067-.192.603-.375 1.17-.552 1.74-.03.096-.064.147-.18.142-.31-.012-.623-.01-.935-.012-.282-.002-.565 0-.887 0 .077.059.12.093.166.126.438.317.876.635 1.316.949.075.053.098.097.065.191-.11.32-.209.642-.312.964l-.244.769c.497-.363.96-.697 1.417-1.04.108-.082.179-.098.291-.005.187.156.392.292.589.436l.794.582c.023-.05.002-.082-.009-.116-.163-.51-.319-1.022-.492-1.528-.047-.137-.028-.205.092-.289.473-.33.937-.671 1.41-1.012zm8.019 13.96c-.067-.045-.126-.027-.181-.028-.536-.001-1.072-.003-1.608.001-.098.001-.148-.025-.176-.125-.063-.225-.139-.447-.211-.669-.112-.35-.226-.7-.349-1.08-.19.598-.374 1.16-.548 1.727-.035.115-.086.15-.205.148-.536-.007-1.072-.003-1.608-.002-.05 0-.104-.018-.159.026l.188.14c.418.3.835.603 1.256.9.078.056.105.102.07.203-.132.383-.251.771-.375 1.157l-.179.57c.501-.367.973-.708 1.438-1.059.099-.074.156-.066.25.005.433.325.872.641 1.309.96.03.021.055.057.108.048-.005-.027-.006-.047-.012-.066-.171-.53-.337-1.06-.516-1.586-.042-.124-.013-.18.087-.25.355-.245.703-.502 1.053-.754l.368-.266zm-31.007-5.07c-.194-.605-.373-1.169-.558-1.73-.029-.089-.023-.138.06-.193.21-.142.415-.295.621-.444l.828-.599-.009-.03h-.15c-.525 0-1.051-.008-1.576.004-.153.004-.201-.054-.242-.186-.17-.555-.352-1.107-.53-1.661-.038.031-.043.073-.056.113-.17.534-.344 1.068-.51 1.603-.03.096-.074.13-.175.129-.54-.005-1.082-.003-1.623-.002-.05 0-.103-.016-.152.018.02.054.072.073.113.102.434.313.867.628 1.304.937.09.063.117.116.08.227-.173.507-.334 1.017-.496 1.526-.015.045-.054.09-.019.151.04-.027.079-.053.116-.08.433-.316.868-.628 1.296-.95.087-.066.14-.062.225 0 .47.352.946.696 1.453 1.066zm10.841 24.155.034.017c.465-.34.933-.677 1.395-1.022.09-.067.145-.072.237-.003.47.352.946.695 1.436 1.053-.009-.04-.012-.059-.018-.078-.174-.544-.345-1.09-.525-1.631-.035-.104-.017-.155.072-.216.282-.194.558-.4.836-.6l.608-.439c-.067-.039-.12-.024-.17-.024-.53-.001-1.06-.005-1.591.002-.123.002-.179-.028-.217-.154-.172-.564-.357-1.124-.539-1.688-.044.03-.044.076-.056.115-.165.514-.338 1.026-.49 1.544-.044.154-.117.185-.261.183-.536-.008-1.072-.003-1.608-.001-.035 0-.081-.027-.112.03l.113.082c.44.317.876.636 1.319.946.093.066.11.123.072.228-.082.224-.149.454-.222.682l-.313.974zm2.514-17.651c0 .735.002 1.47-.002 2.205 0 .106.022.146.135.141.224-.009.448-.01.671 0 .12.006.148-.031.147-.147-.007-.495 0-.99-.005-1.486-.002-.104.03-.129.13-.128.41.001.822.014 1.232-.028.476-.05.85-.261 1.089-.684.188-.333.2-.697.152-1.063a1.247 1.247 0 0 0-1.153-1.104c-.763-.065-1.529-.018-2.293-.035-.119-.003-.103.067-.103.14v2.189zm-4.705.013v2.19c0 .069-.022.144.1.143.676-.007 1.354.014 2.029-.016.775-.034 1.32-.429 1.599-1.163.238-.628.238-1.276.11-1.923-.16-.8-.671-1.577-1.874-1.567-.604.005-1.207.001-1.81-.007-.122-.001-.158.029-.157.154.006.73.003 1.46.003 2.189zm-1.86-.177c-.308 0-.615.003-.922-.001-.077-.001-.11.014-.107.101.006.198.005.396 0 .594-.002.083.024.109.106.106a8.04 8.04 0 0 1 .515 0c.148.005.355-.069.43.033.075.103.02.3.028.455.004.071-.024.115-.082.153-.21.139-.437.241-.682.298-.7.162-1.328-.165-1.548-.821a2.436 2.436 0 0 1-.032-1.447c.153-.551.558-.856 1.175-.9.395-.028.915.117 1.106.681.022.064.057.059.107.049.25-.05.499-.102.75-.142.097-.015.103-.051.08-.134-.156-.542-.484-.926-1.017-1.12-.418-.152-.851-.176-1.29-.13-.832.09-1.434.51-1.76 1.28-.302.717-.289 1.45-.013 2.177.256.673.748 1.086 1.436 1.269.366.097.738.116 1.114.064a3.218 3.218 0 0 0 1.49-.59c.07-.053.128-.105.127-.214a78.133 78.133 0 0 1-.001-1.641c0-.096-.024-.124-.121-.122-.296.007-.593.002-.89.002zm13.512.46c.118-.03.202-.05.285-.075.659-.192.976-.687.913-1.42-.054-.61-.488-1.031-1.144-1.091-.856-.078-1.714-.019-2.572-.039-.094-.002-.095.044-.095.114.001 1.484.002 2.969-.001 4.453 0 .098.038.109.119.107.228-.004.458-.01.686.002.127.006.154-.038.153-.157-.006-.552-.004-1.104-.001-1.657 0-.051-.039-.129.071-.135.41-.022.773.045 1.017.43.24.377.526.726.743 1.115.18.322.399.46.765.406.205-.03.417-.005.651-.005l-.696-1.11c-.229-.364-.478-.708-.894-.938zm-22.511 1.244.015-.01-.017.009c.046-.063.002-.119-.016-.175-.162-.51-.323-1.02-.493-1.527-.034-.104-.011-.155.075-.215.329-.229.652-.465.976-.7.154-.11.307-.222.46-.333l-.01-.03h-.15c-.545 0-1.092-.003-1.638.003-.094 0-.134-.03-.161-.119-.163-.52-.33-1.04-.498-1.558-.015-.05-.018-.11-.075-.151l-.05.142c-.165.52-.334 1.038-.494 1.56-.031.1-.075.139-.184.136-.348-.011-.696-.01-1.044-.013h-.733c.024.072.077.089.116.118.434.314.866.63 1.305.937.097.067.12.123.081.239-.17.507-.33 1.018-.492 1.527-.016.051-.06.102-.012.16l-.01-.008.01.008c.427-.347.891-.646 1.322-.989.148-.118.245-.117.394 0 .433.34.88.66 1.323.989zm24.168 13.974.027.014-.014-.027c-.005-.03-.007-.062-.017-.091-.165-.514-.325-1.03-.5-1.541-.044-.128-.015-.19.089-.262.448-.313.889-.635 1.331-.955.028-.02.082-.027.071-.086-.595 0-1.188-.003-1.781.002-.101 0-.14-.03-.17-.127a99.771 99.771 0 0 0-.512-1.602c-.01-.032.006-.09-.061-.093-.014.04-.03.077-.042.117-.168.524-.338 1.048-.5 1.574-.032.102-.076.134-.183.132-.317-.009-.634-.003-.952-.003h-.825c.012.055.05.066.077.085.375.271.752.54 1.125.813.113.082.29.137.319.258.029.117-.066.264-.107.398-.14.461-.31.913-.431 1.381l-.014.027.027-.014c.443-.318.884-.638 1.328-.955.238-.17.147-.17.387 0 .445.315.872.655 1.328.955zm-11.11-30.16c.064.028.09-.034.127-.06.345-.248.688-.502 1.032-.751.126-.092.255-.247.383-.246.127 0 .253.159.38.248.381.268.743.564 1.137.815.004.012.008.027.024.016.003-.002-.005-.021-.008-.033-.172-.544-.338-1.09-.52-1.632-.04-.125-.013-.182.087-.252.447-.314.888-.635 1.33-.956.028-.02.082-.027.07-.088-.588 0-1.176-.003-1.764.003-.106.001-.151-.028-.183-.132-.176-.57-.36-1.136-.542-1.706-.06.034-.058.093-.073.14-.17.523-.34 1.047-.501 1.573-.03.1-.074.125-.172.125-.551-.005-1.103-.003-1.654-.001-.042 0-.09-.021-.135.024.488.351.97.702 1.458 1.048.07.05.093.09.06.175-.056.145-.1.295-.145.444-.125.417-.284.824-.387 1.248a2.593 2.593 0 0 0-.016.017l.013.001a.7.7 0 0 1 0-.02zM79.871 34.278l.025.018-.002-.036c-.177-.554-.35-1.11-.533-1.662-.034-.1-.012-.15.07-.204.193-.132.381-.271.57-.409.29-.208.578-.417.907-.655h-.196c-.51 0-1.02-.011-1.53.006-.188.007-.256-.061-.306-.229-.162-.54-.338-1.074-.51-1.613-.042.022-.045.054-.055.084-.17.535-.342 1.068-.508 1.604-.034.11-.08.154-.204.152-.546-.008-1.092-.004-1.639-.002-.04 0-.091-.027-.126.027.48.345.954.692 1.434 1.03.085.06.114.109.076.213-.096.27-.18.543-.268.815l-.275.867c.086-.014.127-.064.176-.1.417-.302.835-.603 1.245-.914.101-.077.163-.073.262 0 .459.342.924.673 1.387 1.008zm27.912 0c.004.014.009.029.025.017.004-.003-.003-.022-.005-.035-.175-.549-.346-1.1-.528-1.646-.037-.111-.015-.165.076-.229.446-.314.888-.635 1.33-.955.033-.025.087-.035.09-.1-.586 0-1.168-.003-1.75.003-.117.001-.17-.028-.206-.147-.173-.564-.357-1.125-.538-1.688-.048.02-.047.06-.058.093-.171.534-.348 1.067-.512 1.604-.035.113-.087.139-.195.138-.547-.005-1.093-.003-1.639-.001-.041 0-.092-.025-.129.026.483.349.962.698 1.447 1.038.086.06.099.112.065.203a6.86 6.86 0 0 0-.147.444c-.123.412-.282.813-.381 1.233-.005.002-.009.003-.013.006-.001.001.001.006.002.009l.007-.017c.058.02.083-.032.117-.057.425-.309.853-.613 1.269-.932.123-.094.195-.083.313.007.448.336.906.659 1.36.987zm-3.058-16.174c.068.013.1-.046.143-.077.375-.27.746-.545 1.12-.818.274-.2.273-.197.548-.001.417.298.819.62 1.249.9.003.011.006.027.022.016.004-.002-.004-.022-.006-.033-.173-.545-.342-1.09-.521-1.633-.038-.116-.026-.18.08-.254.449-.31.89-.633 1.333-.952.029-.022.078-.03.078-.091-.59 0-1.176-.005-1.763.003-.118.001-.159-.042-.191-.146-.176-.563-.359-1.125-.539-1.688-.051.018-.048.06-.059.093-.17.53-.344 1.057-.508 1.589-.035.113-.078.154-.201.152-.546-.008-1.093-.004-1.639-.002-.04 0-.092-.026-.126.027.483.348.964.695 1.447 1.04.07.05.108.088.069.186a5.807 5.807 0 0 0-.181.547c-.114.383-.265.754-.352 1.144-.004.002-.009.002-.013.005v.009l.01-.016zm11.554 5.913c0 13.28-10.737 24.014-24.041 23.983-13.242-.03-23.933-10.792-23.882-24.093C68.406 10.645 79.144-.058 92.426 0c13.207.059 23.846 10.768 23.853 24.017z" clip-rule="evenodd"/><path fill="#FEFEFE" fill-rule="evenodd" d="M99.277 23.168v-.022c-.203 0-.406.003-.608-.001-.08-.002-.11.024-.11.106.004.328.004.657 0 .985 0 .078.027.097.1.095.431-.012.863.02 1.293-.03.312-.037.494-.238.497-.554.003-.33-.172-.55-.487-.575-.227-.018-.456-.004-.685-.004zm.943 1.81c.416.23.665.573.894.937l.696 1.11c-.234 0-.446-.025-.651.005-.366.054-.585-.084-.765-.406-.217-.389-.504-.738-.743-1.115-.244-.385-.607-.452-1.017-.43-.11.006-.071.084-.072.135-.002.553-.004 1.105.002 1.657 0 .119-.026.163-.153.157-.228-.011-.458-.006-.686-.002-.081.002-.12-.009-.12-.107.004-1.484.003-2.969.002-4.453 0-.07.001-.116.095-.114.858.02 1.716-.04 2.572.039.656.06 1.09.48 1.144 1.092.063.732-.254 1.227-.913 1.42-.083.024-.167.044-.285.074zm-13.513-.461c.297 0 .594.005.89-.002.097-.002.122.026.12.122a78.133 78.133 0 0 0 .002 1.641c.001.11-.056.161-.127.213a3.218 3.218 0 0 1-1.49.591 2.812 2.812 0 0 1-1.114-.064c-.688-.183-1.18-.596-1.436-1.269-.276-.726-.289-1.46.014-2.177.325-.77.927-1.19 1.758-1.28.44-.046.873-.022 1.291.13.533.194.861.578 1.017 1.12.023.083.017.119-.08.134-.251.04-.5.093-.75.142-.05.01-.085.015-.107-.049-.191-.564-.711-.71-1.106-.68-.617.043-1.022.348-1.175.899-.134.481-.127.971.032 1.447.22.656.847.983 1.548.821.245-.057.471-.16.682-.298.058-.038.086-.082.082-.153-.007-.155.047-.352-.028-.455-.075-.102-.282-.028-.43-.033a7.896 7.896 0 0 0-.515 0c-.082.003-.108-.023-.106-.106a9.803 9.803 0 0 0 0-.594c-.003-.087.03-.102.107-.101.307.004.614.001.921.001zm2.809.173v1.422c0 .062-.012.125.089.122.358-.01.718.021 1.074-.029.328-.046.575-.207.685-.534.19-.562.187-1.138.067-1.709-.11-.522-.421-.76-.955-.795-.275-.018-.55-.017-.825-.023-.111-.003-.138.032-.137.14.005.468.002.937.002 1.406zm-.948.004c0-.73.003-1.46-.003-2.189 0-.125.035-.155.156-.154.604.008 1.207.012 1.81.007 1.204-.01 1.716.767 1.874 1.567.129.647.13 1.295-.11 1.923-.278.734-.823 1.129-1.598 1.163-.675.03-1.353.009-2.029.016-.123 0-.1-.075-.1-.144v-2.189zm5.653-.883v.547c0 .06-.003.114.085.112.347-.008.697.024 1.041-.042.342-.066.534-.318.517-.67-.015-.313-.251-.553-.584-.584-.315-.03-.632-.027-.95-.03-.093 0-.112.038-.11.12.004.183.001.365.001.547zm-.948.87v-2.19c0-.072-.016-.142.103-.139.764.017 1.53-.03 2.293.035.61.052 1.073.492 1.153 1.104.049.366.036.73-.152 1.063-.24.423-.613.634-1.09.684-.41.042-.82.03-1.231.028-.1 0-.132.024-.13.128.005.495-.002.99.005 1.486.001.116-.027.153-.147.148a7.864 7.864 0 0 0-.67 0c-.114.004-.137-.036-.136-.142.004-.735.002-1.47.002-2.205z" clip-rule="evenodd"/><path fill="#FCCA01" fill-rule="evenodd" d="m90.76 42.332.312-.974c.073-.228.14-.458.222-.682.039-.105.021-.162-.072-.228-.443-.31-.88-.63-1.319-.946l-.113-.081c.03-.058.077-.031.112-.031.536-.002 1.072-.007 1.608.001.144.002.216-.029.262-.182.151-.519.324-1.03.489-1.545.012-.04.012-.084.056-.115.182.564.367 1.124.539 1.688.038.126.094.156.217.154.53-.007 1.06-.003 1.592-.002.05 0 .102-.015.169.024l-.608.439c-.278.2-.553.406-.836.6-.09.06-.107.112-.072.216.18.542.351 1.087.525 1.632.006.018.01.038.018.077-.49-.358-.966-.701-1.436-1.053-.092-.069-.148-.064-.237.003-.462.345-.93.682-1.395 1.022l-.034-.017zM79.918 18.177c-.507-.37-.982-.713-1.453-1.064-.085-.063-.138-.067-.225-.001-.428.322-.863.634-1.296.95-.037.027-.076.052-.116.08-.035-.06.004-.106.019-.15.162-.51.323-1.02.495-1.527.038-.111.01-.164-.079-.227-.437-.309-.87-.624-1.304-.937-.04-.03-.092-.048-.113-.102.049-.034.102-.018.152-.018.541-.001 1.082-.003 1.623.002.101 0 .144-.033.174-.129.167-.535.34-1.069.511-1.603.013-.04.018-.082.056-.113.178.555.36 1.106.53 1.661.04.132.09.19.242.186.525-.012 1.05-.005 1.576-.005h.15l.009.031-.828.599c-.206.149-.41.302-.622.444-.082.055-.088.104-.059.192.185.562.364 1.126.558 1.731zm31.007 5.07-.368.266c-.35.252-.698.509-1.053.754-.1.07-.129.126-.087.25.179.526.345 1.057.516 1.586.006.019.007.04.012.066-.053.01-.078-.027-.108-.048-.437-.319-.876-.635-1.309-.96-.094-.071-.151-.08-.25-.005-.465.351-.937.692-1.438 1.059l.179-.57c.124-.386.243-.774.375-1.157.035-.101.008-.147-.07-.203-.421-.297-.838-.6-1.256-.9l-.188-.14c.055-.044.109-.025.159-.026.536-.001 1.072-.005 1.608.002.119.002.17-.033.205-.148.174-.566.358-1.13.548-1.726.123.379.237.729.349 1.079.072.222.148.444.211.669.028.1.078.126.176.125.536-.004 1.072-.002 1.608 0 .055 0 .114-.018.181.027zm-8.019-13.96c-.473.34-.937.683-1.41 1.012-.12.084-.139.152-.092.29.173.505.329 1.017.492 1.527.011.034.032.066.009.116l-.794-.582c-.197-.144-.402-.28-.589-.436-.112-.093-.183-.077-.291.005-.456.344-.92.677-1.417 1.04l.244-.77c.103-.32.202-.644.312-.963.033-.094.01-.138-.065-.191-.44-.314-.878-.632-1.316-.95-.045-.032-.089-.066-.166-.125.322 0 .605-.002.887 0 .312.002.624 0 .936.012.115.005.149-.046.179-.142.177-.57.36-1.137.552-1.74.121.377.234.721.344 1.067.07.217.143.434.204.654.031.112.082.154.204.152.541-.008 1.082-.004 1.623-.002.047 0 .101-.022.154.026zM81.727 9.26c.588 0 1.16-.007 1.731.004.154.003.212-.049.254-.19.15-.497.312-.99.47-1.485.015-.049.033-.096.058-.168.073.117.092.233.127.34.148.454.296.909.436 1.366.03.1.07.137.18.136.54-.007 1.081-.003 1.622-.003h.155c-.01.068-.062.08-.096.105-.446.323-.892.647-1.342.965-.084.059-.096.11-.065.204.185.561.364 1.125.556 1.723l-.878-.64c-.185-.135-.374-.264-.552-.407-.096-.077-.161-.085-.266-.005-.422.32-.854.63-1.282.942-.036.027-.075.05-.148.098l.267-.832c.094-.292.183-.585.284-.874.035-.102.014-.155-.072-.216-.442-.312-.88-.63-1.318-.946-.04-.029-.092-.047-.121-.117zM74.67 26.22c-.048-.057-.004-.108.012-.159.163-.51.322-1.02.492-1.527.04-.116.016-.171-.081-.24-.439-.306-.871-.622-1.305-.936-.04-.03-.092-.046-.116-.118h.733c.348.003.696.002 1.044.013.11.003.153-.035.184-.137.16-.52.329-1.04.495-1.56l.049-.141c.057.041.06.1.075.15.168.52.335 1.039.498 1.56.027.087.067.118.162.117.545-.005 1.092-.002 1.638-.002h.149l.01.03-.46.334c-.324.234-.647.47-.976.699-.086.06-.11.111-.075.215.17.508.33 1.018.493 1.527.018.056.062.112.016.175h.002c-.442-.328-.89-.648-1.323-.988-.15-.117-.246-.118-.394 0-.43.343-.895.642-1.323.989h.001zm24.15 13.962c.122-.468.292-.92.432-1.382.041-.133.136-.28.107-.397-.03-.12-.206-.176-.319-.258-.373-.273-.75-.542-1.125-.813-.027-.02-.065-.03-.077-.085h.825c.318 0 .635-.006.952.003.107.002.151-.03.183-.132.162-.526.332-1.05.5-1.575.012-.039.028-.077.042-.116.067.003.051.061.061.093.174.533.347 1.066.512 1.602.03.098.069.128.17.127.593-.005 1.186-.002 1.781-.002.011.06-.043.066-.071.086-.442.32-.883.642-1.331.955-.104.073-.133.134-.089.262.175.51.335 1.027.5 1.54.01.03.012.062.017.092l-.013.013c-.456-.3-.883-.64-1.328-.955-.24-.17-.149-.17-.387 0-.444.317-.885.637-1.328.955l-.013-.013zM93.826 10.04c-.394-.25-.756-.546-1.137-.814-.127-.09-.253-.248-.38-.248-.128 0-.257.154-.383.246-.344.25-.687.503-1.032.751-.037.026-.063.088-.127.06l.004.002c.103-.424.262-.83.387-1.248.045-.149.089-.299.145-.444.033-.085.01-.125-.06-.175-.487-.346-.97-.697-1.458-1.048.044-.045.093-.024.135-.024.551-.002 1.103-.004 1.654 0 .098.001.141-.023.172-.124.16-.526.331-1.05.5-1.573.016-.047.013-.106.074-.14.182.57.366 1.137.542 1.706.032.104.077.133.183.132.588-.006 1.175-.003 1.765-.003.01.06-.043.068-.07.088-.442.32-.884.642-1.33.956-.1.07-.129.127-.087.252.18.541.347 1.088.519 1.633l-.016.016zM81.7 37.247c.633 0 1.22-.004 1.806.003.12.002.17-.035.204-.149.174-.565.357-1.127.548-1.727l.358 1.104c.07.218.146.434.206.654.026.098.072.117.163.117.567-.004 1.133-.002 1.7-.002h.133l-.709.51c-.26.189-.52.38-.785.564-.07.05-.088.09-.059.178.17.513.333 1.028.497 1.543.017.053.032.107.059.197-.408-.298-.784-.575-1.162-.848-.134-.096-.259-.273-.406-.262-.137.01-.264.169-.394.263l-1.008.735c-.04.03-.082.057-.153.106l.397-1.246c.052-.163.098-.33.16-.488.036-.09.008-.13-.06-.178-.487-.347-.971-.697-1.495-1.074zm-1.83-2.969c-.462-.335-.927-.666-1.386-1.007-.1-.074-.16-.078-.262-.001-.41.311-.828.612-1.245.915-.049.035-.09.085-.176.099l.275-.867c.088-.273.172-.546.269-.815.037-.104.008-.152-.077-.212-.48-.34-.955-.686-1.434-1.031.035-.054.086-.027.126-.027.547-.002 1.093-.006 1.64.002.122.002.17-.043.203-.152.166-.536.339-1.07.508-1.604.01-.03.013-.062.055-.084.172.539.349 1.074.51 1.613.05.168.118.236.307.23.51-.018 1.02-.007 1.53-.007h.195l-.906.655c-.19.138-.378.277-.571.409-.082.055-.104.104-.07.204.182.552.356 1.108.533 1.662a.109.109 0 0 0-.023.018zm24.858-.002c.099-.42.258-.82.381-1.233a6.86 6.86 0 0 1 .147-.444c.034-.091.021-.142-.065-.203-.485-.34-.964-.69-1.447-1.038.037-.05.088-.026.129-.026.546-.002 1.092-.005 1.639 0 .108.002.16-.024.195-.137.164-.537.341-1.07.512-1.604.011-.034.01-.074.058-.093.181.563.365 1.124.538 1.688.036.119.089.148.206.147.582-.006 1.164-.003 1.75-.003-.003.065-.057.075-.09.1-.442.32-.884.64-1.33.955-.091.064-.113.118-.076.229.182.547.353 1.097.528 1.647l-.02.018c-.454-.328-.912-.65-1.36-.988-.118-.089-.19-.1-.313-.006-.416.32-.844.623-1.269.932-.034.025-.059.077-.117.057l.004.002zm3.057-16.169c-.43-.28-.832-.6-1.249-.899-.275-.196-.274-.2-.548.001-.374.273-.745.547-1.12.818-.043.03-.075.09-.143.077l.003.002c.087-.39.238-.761.352-1.144.054-.184.109-.369.181-.547.039-.098.001-.136-.069-.187-.483-.344-.964-.691-1.447-1.039.034-.053.086-.027.126-.027.546-.002 1.093-.006 1.639.002.123.002.166-.039.201-.152.164-.532.338-1.06.508-1.589.011-.033.008-.075.059-.093.18.563.363 1.125.539 1.688.032.104.073.147.191.146.587-.008 1.173-.003 1.763-.003 0 .06-.049.07-.078.09-.443.32-.884.642-1.333.953-.106.074-.118.137-.08.254.179.543.348 1.088.521 1.633a.204.204 0 0 0-.016.016zM74.67 26.22l-.01-.007.01.007z" clip-rule="evenodd"/><path fill="#FCCA01" fill-rule="evenodd" d="m77.707 26.22.017-.008-.015.009-.002-.001zm30.094-8.13c.002.012.01.032.006.034-.016.01-.019-.005-.022-.017a.204.204 0 0 1 .016-.016zM79.894 34.26l.002.036-.025-.018a.109.109 0 0 1 .023-.018zm24.83.014-.007.017c-.001-.003-.003-.008-.002-.009.004-.003.008-.004.013-.006l-.004-.002zm3.079-.014c.002.013.009.032.005.035-.016.012-.021-.003-.025-.016l.02-.019zm-3.078-16.156-.01.016v-.009c.004-.003.009-.003.013-.005l-.003-.002zm-10.883-8.08c.003.012.011.03.008.033-.016.011-.02-.004-.024-.016l.016-.017zm-3.075.01a.7.7 0 0 0 .001.021h-.013l.016-.018-.004-.003zm8.067 30.161-.027.014.014-.027.013.013zm3.056-.013.014.027-.027-.014.013-.013z" clip-rule="evenodd"/><path fill="#003398" fill-rule="evenodd" d="M99.277 23.168c.229 0 .458-.014.685.004.315.025.49.244.487.575-.003.316-.185.517-.497.554-.43.05-.862.018-1.293.03-.073.002-.1-.017-.1-.095.004-.328.004-.657 0-.985 0-.082.03-.108.11-.106.202.004.405.001.608.001v.022zm-9.761 1.522c0-.469.003-.938-.002-1.406-.001-.108.026-.143.137-.14.275.006.55.005.825.023.534.035.845.273.955.795.12.571.124 1.147-.067 1.71-.11.326-.357.487-.685.533-.356.05-.716.019-1.074.029-.101.002-.089-.06-.089-.122V24.69zm4.705-.879c0-.182.003-.364-.001-.547-.002-.082.017-.12.11-.12.318.003.635 0 .95.03.333.031.57.27.584.584.017.352-.175.604-.517.67-.344.066-.694.034-1.041.042-.088.002-.085-.052-.085-.112v-.547z" clip-rule="evenodd"/><circle cx="160" cy="24" r="18" fill="#fff"/><mask id="a" width="49" height="31" x="135" y="0" maskUnits="userSpaceOnUse" style="mask-type:luminance"><path fill="#fff" fill-rule="evenodd" d="M135.953 0h47.924v30.633h-47.924V0z" clip-rule="evenodd"/></mask><g mask="url(#a)"><path fill="#0077C5" fill-rule="evenodd" d="M183.877 24.189c-.011 1.977-.3 4.112-.862 6.211-.061.229-.138.272-.364.203a451.297 451.297 0 0 0-5.172-1.558c-.225-.067-.267-.14-.205-.363.616-2.215.801-4.466.547-6.754-.475-4.291-2.256-7.955-5.322-10.973-2.522-2.483-5.537-4.072-9.011-4.777a17.656 17.656 0 0 0-5.209-.289c-3.465.33-6.597 1.537-9.349 3.677-3.497 2.72-5.713 6.264-6.649 10.596a17.216 17.216 0 0 0-.28 5.579c.11.985.272 1.958.546 2.91.044.152-.003.221-.148.263a822.34 822.34 0 0 0-5.365 1.548c-.188.055-.203-.036-.237-.16a22.52 22.52 0 0 1-.657-3.352c-.145-1.246-.222-2.497-.171-3.754.211-5.148 1.847-9.785 4.994-13.865 2.935-3.806 6.69-6.487 11.225-8.058a23.046 23.046 0 0 1 6.416-1.24c5.407-.271 10.358 1.107 14.831 4.156 3.292 2.244 5.853 5.154 7.71 8.683a23.821 23.821 0 0 1 2.479 7.645c.171 1.15.254 2.31.253 3.672" clip-rule="evenodd"/></g><path fill="#000" fill-rule="evenodd" d="M159.893 48c-6.254-.096-11.718-2.207-16.318-6.477-3.077-2.857-5.225-6.315-6.513-10.314-.088-.274-.042-.356.24-.435 1.699-.475 3.391-.97 5.082-1.474.236-.07.327-.052.419.204 2.411 6.691 7.08 10.862 14.065 12.126 5.858 1.06 11.052-.606 15.437-4.663 2.207-2.043 3.748-4.533 4.706-7.384.07-.207.135-.254.35-.188 1.724.53 3.452 1.05 5.181 1.562.204.06.273.106.197.342-2.578 8.045-9.195 14.162-17.407 16.079-1.714.4-3.605.614-5.439.622" clip-rule="evenodd"/><path fill="#000" fill-rule="evenodd" d="M155.182 25.987c-1.927.06-3.312 1.478-3.297 3.482.015 2.016 1.423 3.409 3.435 3.397 2.05-.011 3.506-1.45 3.488-3.468-.019-2.161-1.521-3.476-3.626-3.41zm-.678 1.223c-.853.322-1.387 1.16-1.387 2.178.001 1.623 1.258 2.695 2.745 2.354 1.829-.42 2.156-2.8 1.157-3.939-.611-.697-1.61-.933-2.515-.593zm-5.376-1.215c.713-.002 1.285.152 1.793.53.137.102.161.168.025.296a7.423 7.423 0 0 0-.58.62c-.105.125-.157.101-.269 0-.454-.415-.988-.472-1.553-.281a.727.727 0 0 0-.515.65c-.034.32.128.537.392.696.28.168.594.246.897.352.152.053.304.105.454.163 1.001.386 1.392.943 1.343 1.91-.046.91-.621 1.594-1.581 1.827-.992.24-1.922.115-2.738-.557-.172-.141-.262-.27-.016-.426.058-.037.1-.099.151-.148.159-.155.297-.385.486-.442.196-.06.288.242.462.347.463.279.939.35 1.444.145.336-.138.554-.382.565-.753.01-.348-.187-.583-.489-.74-.243-.127-.501-.211-.759-.299-.248-.084-.497-.167-.738-.269-.657-.279-1.061-.749-1.099-1.492-.041-.78.252-1.378.934-1.77.458-.263.956-.37 1.391-.359m21.906 6.871c-.687 0-1.374-.006-2.061.004-.187.003-.249-.033-.263-.242-.025-.384.092-.65.39-.909a20.245 20.245 0 0 0 1.937-1.876c.268-.304.526-.618.691-.99.224-.506.305-1.034-.084-1.487-.391-.456-.926-.427-1.456-.298a2.297 2.297 0 0 0-.81.399c-.112.082-.167.072-.21-.066-.042-.134-.106-.261-.16-.392-.167-.407-.168-.409.204-.622a3.394 3.394 0 0 1 2.159-.432c1.477.19 2.215 1.52 1.663 2.959-.286.747-.811 1.32-1.367 1.867-.302.298-.624.576-.934.865-.033.03-.107.051-.078.107.014.026.087.028.134.028.758.002 1.516.009 2.274-.003.213-.004.321.03.292.275-.03.26.105.6-.049.762-.155.163-.496.045-.756.05-.505.007-1.01.001-1.516.001m-11.555-3.386c-.007-3.129 2.927-3.992 4.706-3.237.349.148.639.382.905.648.102.1.122.177-.021.25-.036.019-.065.048-.098.072-.204.15-.389.369-.616.428-.232.06-.368-.245-.57-.36-.686-.39-1.722-.249-2.364.343-1.044.962-.942 2.917.197 3.76.837.621 1.882.546 2.601-.203.145-.152.237-.158.391-.029.177.15.369.283.567.403.167.1.167.184.044.323a2.838 2.838 0 0 1-1.865.96c-1.652.19-3.314-.623-3.767-2.41a3.368 3.368 0 0 1-.11-.949" clip-rule="evenodd"/><path fill="#0078C5" fill-rule="evenodd" d="M159.275 20.715c-1.303-.014-2.372-.49-2.92-1.725-.907-2.04.392-3.97 2.384-4.233 1.033-.136 1.988.058 2.791.777l.044.04c.42.402.372.607-.178.838-.139.059-.157-.06-.205-.111-.816-.872-2.044-1.088-3.096-.54-.847.442-1.321 1.32-1.204 2.227a2.24 2.24 0 0 0 1.76 1.926c.961.202 1.826.018 2.524-.713.148-.155.233-.107.371-.003.454.34.457.343.019.716-.66.563-1.428.812-2.29.801m11.598-.462c.124.279.281.43.546.346l.11-.002c.06-.001.106-.002.151.003.222.026.226-.047.137-.228a1111.45 1111.45 0 0 1-1.869-3.796l-.892-1.814-.008-.017c-.03-.062-.07-.145-.106-.146-.063 0-.083.058-.103.115a.414.414 0 0 1-.023.056l-2.668 5.328c-.124.247-.186.369-.149.431.038.064.181.066.471.077.253.01.374-.085.475-.3.119-.253.246-.503.373-.752.101-.198.202-.397.299-.597.063-.13.128-.2.288-.197.677.01 1.353.01 2.03 0 .161-.002.228.069.291.198.082.167.168.333.254.499.136.263.272.526.393.796zm-2.142-2.218a65.34 65.34 0 0 0 .389 0c.148-.001.296-.002.444.001.133.003.22 0 .128-.175a62.836 62.836 0 0 1-.692-1.369c-.052-.104-.095-.106-.148.002-.231.469-.463.937-.701 1.402-.057.11-.031.141.083.14.166-.002.331-.002.497-.001zm-15.919 2.189c.126.273.264.48.559.375.262 0 .389 0 .423-.056.032-.053-.02-.157-.12-.361l-1.22-2.48-1.394-2.835a1.688 1.688 0 0 1-.036-.077c-.044-.094-.093-.202-.121-.197-.094.016-.127.106-.158.194a.717.717 0 0 1-.036.088 2183.18 2183.18 0 0 0-2.164 4.33l-.445.892c-.125.25-.187.37-.15.433.038.063.178.065.461.076.263.01.394-.084.499-.315.117-.258.245-.51.374-.763.096-.187.191-.374.282-.563.069-.145.145-.209.317-.206.656.013 1.313.011 1.97.002.162-.003.253.04.325.193.095.2.197.398.299.596.115.223.23.446.335.674zm-2.725-2.202h.787v.013l.199-.001c.156-.002.312-.003.468.004.148.006.175-.034.108-.167-.229-.449-.454-.9-.676-1.353-.077-.158-.118-.114-.179.011a9.784 9.784 0 0 1-.166.322c-.075.144-.151.287-.218.434a2.924 2.924 0 0 1-.118.227c-.089.16-.178.322-.205.51zM162.949 17l-.001.719v2.366c0 .51 0 .51.5.518l.029.001c.206.003.278-.045.274-.264-.008-.386-.007-.772-.007-1.158.001-.302.002-.604-.002-.906-.002-.173.028-.249.228-.249.433 0 .866-.026 1.298-.055.41-.028.793-.145 1.109-.422.454-.399.615-1.05.397-1.663-.229-.645-.735-.93-1.378-1.011-.492-.062-.986-.061-1.48-.06-.222 0-.445 0-.667-.005-.232-.006-.312.049-.307.298.011.63.009 1.261.007 1.892zm1.827-1.398-.198.002v-.022h-.19a9.437 9.437 0 0 1-.445-.002c-.136-.004-.202.037-.199.188.007.434.006.868 0 1.302-.002.14.041.203.189.198.159-.005.32-.006.48-.006.283-.002.566-.004.847-.027.478-.04.79-.401.781-.84-.009-.433-.346-.76-.83-.79a5.685 5.685 0 0 0-.435-.003zm-9.656 2.131c0 .86-.006 1.72.005 2.58.003.211-.03.3-.274.293-.519-.017-.519-.002-.519-.528 0-1.648.005-3.298-.006-4.946-.001-.24.036-.337.305-.324.488.024.489.006.489.497v2.428" clip-rule="evenodd"/><path fill="#A6A8AB" fill-rule="evenodd" d="M159.883 23.445c-3.812 0-7.624 0-11.436-.003-.112 0-.321.048-.318-.049.003-.133.195-.066.301-.066 7.654-.004 15.308-.004 22.961 0 .102 0 .299-.047.291.047-.013.14-.198.067-.304.067-3.831.004-7.663.004-11.495.004" clip-rule="evenodd"/><path fill="#fff" fill-rule="evenodd" d="M180.12 7.764c-.048.16.078.19.178.222.161.049.243.14.198.309-.045.173-.206.176-.337.19-.058.007-.184-.033-.167-.128.019-.114.097-.04.156-.014.089.04.167.003.199-.076.05-.124-.059-.15-.142-.18-.204-.074-.314-.181-.154-.395a.09.09 0 0 1 .069.072m.736.24c-.026.033-.068.062-.076.1-.013.056 0 .119-.004.179-.004.054.023.137-.06.143-.092.006-.065-.08-.066-.132-.004-.13-.013-.262.002-.39.012-.093-.081-.25.087-.265.138-.012.135.142.167.24.031.061.055.119-.05.125m.402-.142c.032-.098.025-.25.18-.22.123.024.064.155.059.232-.012.184.06.375-.04.552-.142-.144-.03-.328-.076-.487-.002-.008-.016-.02-.021-.02-.015.005-.027.015-.041.023-.062.005-.086-.019-.061-.08" clip-rule="evenodd"/><path fill="#fff" fill-rule="evenodd" d="m181.257 7.862.062.08c-.007.029-.009.06-.023.085-.075.134-.086.392-.216.384-.158-.01-.16-.26-.225-.407l.051-.125c.087.076.064.264.174.264.059 0 .118-.181.177-.28m-1.133-.099-.069-.072c.051-.096.145-.099.231-.092.073.005.195.006.186.1-.014.148-.114.023-.177.029-.057.005-.114.023-.171.035" clip-rule="evenodd"/><path fill="#FDFDFE" fill-rule="evenodd" d="M151.42 5.197c.002.652-.577 1.213-1.255 1.217-.644.004-1.21-.577-1.221-1.256-.012-.652.563-1.22 1.24-1.225.672-.005 1.234.57 1.236 1.264m29.125 10.595c.014.256-.113.424-.33.53-.239.117-.492.123-.673-.076-.182-.199-.25-.115-.356.056-.118.188-.257.363-.394.538-.05.064-.081.227-.179.149-.079-.064-.155-.21-.042-.35.175-.222.328-.461.506-.68.107-.132.16-.252.057-.406-.119-.179-.237-.02-.342.012-.182.055-.353.145-.529.22-.072.03-.144.072-.187-.047-.033-.095-.058-.166.065-.217.641-.263 1.281-.53 1.92-.8.071-.03.118-.022.145.046.133.335.321.652.339 1.025M154.832 4.857c.063.614-.733.942-1.306.747-.072-.025-.122-.06-.076-.156.044-.09.084-.162.201-.108.218.101.433.08.64-.028.197-.102.3-.27.277-.495-.01-.097-.026-.247-.085-.275-.094-.043-.112.113-.177.17a.843.843 0 0 1-.988.063c-.3-.203-.438-.656-.304-.997.128-.325.519-.522.901-.462.077.012.213.15.21-.096-.001-.067.201-.152.25.015.156.54.368 1.064.457 1.622m-13.818 11.96c.07.052.236-.108.247.073.01.15-.094.264-.276.233-.33-.055-.468.125-.525.416a.993.993 0 0 1-.087.288c-.171.313-.095.548.202.726.151.09.147.23.051.332-.098.105-.164-.041-.225-.094-.512-.442-1.02-.889-1.525-1.339-.082-.073-.202-.122-.148-.29.054-.166.172-.146.287-.157.662-.064 1.324-.125 1.999-.188m-.999 7.482c.033.23-.166.25-.287.29-.234.076-.289.212-.237.431a.78.78 0 0 1 .026.24c-.028.39.015.722.506.775.162.018.141.177.114.263-.042.136-.147.03-.217.005-.652-.232-1.302-.47-1.952-.703-.104-.038-.198-.056-.209-.21-.012-.157.088-.186.182-.234.626-.32 1.252-.637 1.877-.958.129-.066.23-.109.197.1" clip-rule="evenodd"/><path fill="#FCFDFE" fill-rule="evenodd" d="M142.26 14.656a1.061 1.061 0 0 1-.508.85c-.073.046-.181.136-.249-.014-.05-.111-.055-.197.098-.259.259-.106.381-.323.361-.605-.023-.31-.319-.45-.564-.26-.175.135-.327.3-.496.444-.208.177-.439.186-.675.062a.589.589 0 0 1-.333-.598c.022-.342.158-.626.467-.799.062-.034.163-.143.203.033.02.087.11.172-.061.23-.196.066-.287.24-.324.442-.031.167.014.297.154.393.148.103.289.072.415-.036.169-.144.326-.302.497-.443a.555.555 0 0 1 .651-.06c.231.122.36.318.364.62m37.012 4.888c-.177.037-.355.07-.53.113-.101.025-.141-.006-.168-.105-.031-.11.016-.15.108-.169.649-.125 1.299-.251 1.949-.373.076-.015.17-.034.196.08.015.063.043.12-.058.167-.157.075.01.117.041.155.234.288.277.624.108.926a.844.844 0 0 1-.816.405c-.375-.053-.615-.266-.695-.616a.554.554 0 0 1 .029-.385c.102-.2-.011-.21-.164-.198m-9.29-13.467c.002-.52.319-.99.795-1.178a1.191 1.191 0 0 1 1.443.504c.051.108.173.261.057.336-.143.09-.251-.007-.318-.19-.108-.294-.495-.49-.788-.45-.435.06-.818.424-.883.838-.099.637.307 1.087.949 1.04.13-.01.217.004.237.145.024.166-.116.138-.201.15-.668.098-1.293-.483-1.291-1.195" clip-rule="evenodd"/><path fill="#FDFDFE" fill-rule="evenodd" d="M140.199 21.605c-.001.563-.247.97-.701 1.142-.5.19-.974.127-1.376-.245-.385-.356-.431-.8-.287-1.28a.697.697 0 0 1 .206-.33c.054-.048.107-.191.21-.072.062.072.151.15.02.273-.273.254-.332.573-.158.907.203.386.538.56.972.532.373-.024.654-.195.801-.547a.772.772 0 0 0-.094-.801c-.084-.11-.103-.191.017-.274.138-.096.18.046.227.112.131.186.195.397.163.583" clip-rule="evenodd"/><path fill="#FCFDFE" fill-rule="evenodd" d="M139.469 19.29v.091c.008.198-.201.435-.023.576.148.117.407.084.604.152.108.037.339-.06.299.201-.013.08-.035.14-.158.114-.666-.147-1.335-.28-2.003-.417-.102-.021-.153-.056-.123-.18.062-.264.085-.538.189-.79.138-.338.375-.484.673-.427.37.07.545.29.542.68m3.513-6.466c-.037-.106-.027-.2.118-.206.164-.008.123.127.129.216a.853.853 0 0 1-.533.834c-.32.124-.7.006-.944-.294a.783.783 0 0 1-.025-.931.746.746 0 0 1 1.018-.197c.114.073.091.128.036.214-.162.256-.318.514-.482.769-.096.15-.037.189.114.198.327.02.572-.232.569-.603m35.919 4.966c.002-.297.307-.621.715-.667.459-.05.78.18.885.636.084.366-.104.678-.485.83-.13.051-.19.049-.23-.106-.075-.292-.184-.576-.26-.868-.041-.16-.1-.142-.2-.061-.254.203-.245.576.033.815.098.084.217.16.088.28-.104.098-.2-.029-.27-.089-.203-.174-.285-.408-.276-.77M146.666 7.344a.78.78 0 0 1 .513-.747c.283-.113.548-.035.789.212.116.118.142.192-.02.3-.234.155-.447.343-.676.508-.165.119-.094.19.039.251.268.124.6-.024.702-.333.043-.13.077-.251.231-.187.159.067.036.201.01.284-.11.345-.549.605-.884.544a.884.884 0 0 1-.704-.832m19.385-2.436c-.487-.003-.855-.35-.848-.8.008-.472.375-.845.822-.833.472.013.862.386.852.815-.01.482-.353.821-.826.818m10.24 7.472a.844.844 0 0 1 .821-.834c.422 0 .812.409.82.857.007.44-.382.83-.83.83-.429 0-.808-.398-.811-.853m-4.429-4.821a.808.808 0 0 1 .829-.785.827.827 0 0 1 .813.872.805.805 0 0 1-.825.785.853.853 0 0 1-.817-.872m-9.22-4.389c-.023.27-.052.542-.067.813-.012.205-.177.16-.215.089-.08-.152-.127-.093-.239-.048-.246.098-.5.08-.711-.097-.142-.119-.182-.278-.126-.465.088-.289.33-.325.57-.366.069-.011.146.013.211-.006.109-.032.299.148.319-.069.017-.192-.152-.29-.346-.303-.132-.009-.263-.002-.379.07-.104.065-.145-.016-.189-.08-.07-.101.033-.123.086-.147a.92.92 0 0 1 .843.005c.244.127.262.362.243.604m17.047 18.82c-.001-.497.313-.814.809-.816.47-.002.81.343.817.831a.814.814 0 0 1-.83.821c-.477.001-.795-.333-.796-.836M155.782 2.776c.305-.006.465.18.538.442.082.29.127.592.197.886.045.185-.15.166-.167.142-.131-.18-.192-.03-.275.04-.207.178-.455.18-.686.102-.326-.11-.358-.577-.064-.792a1.29 1.29 0 0 1 .558-.217c.065-.011.159-.02.168-.097.009-.079-.044-.151-.118-.198-.21-.132-.393-.03-.562.08-.105.069-.21.176-.295.021-.069-.127.084-.184.165-.241a.933.933 0 0 1 .541-.168m18.546 5.654c-.184.023-.325.136-.454.267-.134.136-.273.27-.396.417-.078.092-.123.051-.196 0-.107-.075-.054-.125.007-.19.291-.307.581-.618.872-.926.038-.04.071-.109.144-.054.047.037.126.09.096.139-.105.171-.006.15.118.169.482.075.674.586.36.961-.188.224-.404.425-.599.643-.077.086-.125.098-.218.015-.114-.102-.03-.155.03-.217.187-.198.385-.387.562-.595.087-.102.175-.228.074-.384-.094-.145-.215-.237-.4-.245m-5.905-3.834c.006-.17-.095-.25-.238-.309-.187-.078-.335-.017-.462.115-.165.172-.213.407-.31.616a3.007 3.007 0 0 0-.095.222c-.032.086-.085.103-.166.068-.082-.036-.126-.076-.082-.18.169-.397.331-.797.495-1.198.065-.158.222-.073.224-.024.012.233.154.135.263.13.491-.023.771.353.601.816-.097.264-.211.522-.32.782-.032.074-.064.15-.177.1-.104-.046-.128-.098-.075-.208.099-.209.178-.427.27-.64a.689.689 0 0 0 .072-.29M157.234 3.4c.019.157.046.346.064.537.008.073.039.162-.089.183-.12.02-.165-.03-.178-.138-.049-.42-.1-.84-.148-1.26-.005-.046-.017-.109.054-.12.057-.008.147-.036.165.021.066.211.129.052.19.006.443-.333.916-.134.987.415.032.25.066.5.093.75.009.078.074.181-.081.208-.139.024-.179-.041-.19-.162-.02-.21-.05-.42-.067-.631-.019-.246-.059-.48-.372-.485-.253-.005-.425.216-.428.52V3.4" clip-rule="evenodd"/><path fill="#FBFDFD" fill-rule="evenodd" d="M179.626 26.301a.651.651 0 0 1 .207-.545c.051-.046.116-.147.191-.036.041.062.134.138.011.226-.158.113-.184.28-.159.46.013.097.07.17.166.193.106.027.173-.035.213-.125.061-.138.111-.281.177-.417.082-.168.214-.269.411-.238a.406.406 0 0 1 .357.323c.055.242.052.484-.133.681-.059.063-.131.155-.221.046-.057-.07-.1-.15.009-.231.115-.086.142-.213.121-.353-.013-.086-.05-.157-.137-.18-.098-.027-.149.044-.187.116-.042.08-.08.163-.107.248-.085.261-.217.465-.532.421-.27-.037-.39-.232-.387-.589M145.332 8.42c.004-.354.307-.727.644-.773.068-.009.189-.096.221.058.027.126-.035.164-.157.194-.267.064-.452.227-.442.529.008.245.279.527.521.554.279.032.478-.09.554-.355.035-.124.073-.187.194-.149.152.048.072.174.049.254-.095.327-.521.586-.858.536-.392-.057-.731-.453-.726-.848m-.428 2.366c-.067.103-.095.262-.277.204-.449-.144-.897-.293-1.344-.443-.049-.017-.138-.039-.081-.118.058-.08.098-.197.257-.133.298.12.604.217.91.315.039.012.077.087.123.03.034-.044.001-.094-.024-.14-.145-.263-.278-.535-.438-.79-.083-.134-.067-.242.046-.308.144-.085.141.088.177.153.192.341.371.69.553 1.037.033.061.064.124.098.193" clip-rule="evenodd"/><path fill="#FCFDFE" fill-rule="evenodd" d="M160.247 3.955c-.11-.006-.221-.008-.331-.021-.085-.01-.197.05-.248-.05-.06-.118.031-.212.1-.297.197-.243.402-.48.598-.725.047-.06.147-.106.117-.192-.01-.028-.127-.022-.196-.027a27.4 27.4 0 0 0-.453-.027c-.067-.003-.116-.025-.118-.103-.003-.083.05-.1.116-.1.314 0 .629-.022.94.008.251.024.135.197.057.299-.216.28-.45.546-.674.82-.036.044-.094.107-.084.147.016.07.101.037.157.04.171.01.343.014.514.022.066.004.153-.018.158.09.005.122-.087.115-.167.115-.162.002-.324 0-.486.001" clip-rule="evenodd"/><path fill="#FBFCFD" fill-rule="evenodd" d="M175.566 9.624c0-.112-.059-.143-.096-.188-.047-.058-.087-.109-.01-.18.067-.062.124-.069.172.008.111.174.215.12.331.004.067-.066.131-.16.242-.03.116.135-.009.185-.076.233-.177.127-.141.232.001.355.06.052.158.106.046.217-.111.111-.167.015-.206-.05-.14-.24-.266-.169-.413-.008-.095.104-.206.194-.315.283-.189.154-.305.31-.046.502.058.043.082.084.022.145-.054.055-.102.079-.184.038-.293-.147-.366-.488-.137-.722.17-.173.355-.33.535-.492.051-.046.104-.09.134-.115" clip-rule="evenodd"/><path fill="#FAFCFD" fill-rule="evenodd" d="M180.379 24.725c.15.011.302.014.45.037.169.027.298.024.289-.202-.002-.058.021-.124.101-.126.096-.002.125.065.111.14-.041.224.108.219.251.215.122-.004.188.03.176.17-.012.147-.114.132-.195.106-.271-.085-.236.118-.263.266-.014.075.005.174-.12.167-.132-.007-.101-.116-.09-.182.039-.245-.065-.315-.296-.295-.148.014-.3-.013-.45-.025-.232-.018-.412.02-.365.32.01.063.014.116-.077.124-.099.009-.14-.029-.164-.126-.104-.425.097-.61.642-.59" clip-rule="evenodd"/><path fill="#FBFDFD" fill-rule="evenodd" d="M163.537 3.84c-.009.181.08.263.252.274.074.004.172-.024.144.119-.021.103-.081.122-.171.125-.362.014-.549-.192-.492-.551.03-.19.073-.376.098-.565.022-.157.149-.37-.178-.37-.069 0-.07-.084-.06-.147.01-.07.066-.08.112-.066.209.06.262-.049.271-.23.006-.103.065-.16.183-.138.148.027.108.138.08.21-.077.201-.016.281.193.281.088 0 .2.007.186.14-.017.172-.16.11-.233.085-.184-.06-.249-.01-.268.18-.021.22-.077.435-.117.653" clip-rule="evenodd"/><path fill="#FAFCFD" fill-rule="evenodd" d="M179.431 12.895c-.01.077-.075.091-.125.12-.621.355-1.244.707-1.864 1.064-.103.06-.172.08-.239-.049-.072-.135.04-.152.107-.19.612-.351 1.226-.699 1.84-1.046.056-.032.114-.105.186-.046.043.036.065.099.095.147" clip-rule="evenodd"/><path fill="#FBFDFD" fill-rule="evenodd" d="M138.882 23.445c.322 0 .645.002.968-.002.112 0 .192.007.19.157-.002.158-.088.143-.197.141-.645-.013-1.29-.021-1.935-.03-.101-.002-.204.011-.201-.15.003-.164.109-.136.207-.136h.968v.02" clip-rule="evenodd"/><path fill="#F4F9FC" fill-rule="evenodd" d="M180.595 23.323c.201 0 .403.004.604-.002.171-.005.162.174.119.192-.223.092-.059.171-.015.263.038.08.067.168.084.256.015.08.012.167-.112.165-.085-.002-.137-.006-.16-.123-.08-.394-.163-.45-.569-.456a20.628 20.628 0 0 0-.545 0c-.108.002-.2.002-.194-.152.005-.139.089-.134.183-.134.202.002.403 0 .605 0v-.01z" clip-rule="evenodd"/><path fill="#F9FCFD" fill-rule="evenodd" d="M143.152 10.854c-.016.028-.031.053-.043.08-.172.375-.148.485.173.733.159.123.321.244.486.359.083.057.103.102.03.187-.062.073-.098.107-.191.036a32.255 32.255 0 0 0-1.024-.75c-.127-.089-.085-.23-.008-.228.307.008.149-.248.232-.36.073-.1.09-.31.285-.128.022.02.038.045.06.071" clip-rule="evenodd"/><path fill="#FAFCFD" fill-rule="evenodd" d="M175.534 11.465c-.089-.002-.116-.061-.15-.109-.05-.068.001-.108.049-.147l1.013-.819c.037-.03.083-.076.129-.023.039.043.098.131.085.147-.173.211.05.144.122.184.062.034.129.064.179.111.067.063.189.124.075.241-.092.095-.17.066-.248-.033-.175-.22-.385-.193-.59-.054-.183.125-.354.268-.53.403l-.134.099" clip-rule="evenodd"/><path fill="#FBFCFD" fill-rule="evenodd" d="M151.816 3.98c.214.218.24-.054.345-.128.041-.028.078-.067.122-.087.068-.03.15-.1.204.012.039.08.06.151-.057.222-.318.195-.351.318-.225.672.064.18.131.359.206.534.043.1.087.188-.056.242-.128.048-.156-.046-.19-.13-.154-.38-.298-.767-.464-1.143-.066-.149.037-.144.115-.193" clip-rule="evenodd"/><path fill="#F6FAFC" fill-rule="evenodd" d="M144.65 8.823c.042.038.08.068.114.101l.858.845c.063.062.144.108.048.22-.107.124-.169.04-.239-.028a97.483 97.483 0 0 1-.864-.839c-.044-.043-.129-.085-.056-.169.038-.044.086-.08.139-.13" clip-rule="evenodd"/><path fill="#F9FCFD" fill-rule="evenodd" d="M164.324 4.32c.095-.424.186-.828.275-1.231.024-.108.082-.152.194-.13.124.026.097.107.078.187-.094.402-.193.803-.281 1.207-.022.103-.062.14-.162.12-.097-.022-.142-.072-.104-.153m-5.39-1.153c-.014-.19-.029-.38-.04-.57-.005-.093-.008-.182.131-.186.124-.003.151.052.153.163.006.402.018.804.033 1.206.003.1-.003.185-.127.195-.166.015-.137-.111-.139-.205-.005-.2-.002-.402-.002-.603h-.009" clip-rule="evenodd"/><path fill="#F5FAFC" fill-rule="evenodd" d="M159.003 2.009c-.112-.016-.186-.065-.183-.192.004-.121.071-.188.185-.188.115.001.182.068.183.19 0 .124-.072.177-.185.19" clip-rule="evenodd"/><path fill="#F4F9FC" fill-rule="evenodd" d="M165.088 2.35c.001.128-.045.202-.171.205-.118.002-.196-.06-.202-.171-.006-.113.076-.189.182-.2.114-.011.182.059.191.166" clip-rule="evenodd"/><path fill="#F7FBFD" fill-rule="evenodd" d="M144.117 8.677c-.108.01-.171-.058-.175-.173-.004-.113.049-.193.174-.194.119 0 .191.07.198.18.008.112-.057.184-.197.187" clip-rule="evenodd"/><path fill="#FDFDFD" fill-rule="evenodd" d="M168.444 41.689c.262.015.463.126.575.373.118.26.128.517-.083.73-.121.122-.105.176.03.258.232.142.449.31.683.446.198.114.128.15-.023.235-.212.12-.377.115-.562-.054-.171-.155-.379-.267-.558-.414-.12-.098-.221-.066-.33 0-.151.092-.009.178.018.253.056.16.132.316.212.467.084.158.118.257-.1.36-.235.112-.263-.02-.331-.173-.263-.589-.523-1.18-.807-1.757-.091-.184-.039-.242.119-.303.383-.148.73-.392 1.157-.421m-19.971-.6c-.009.19-.095.348-.208.494-.148.191-.299.38-.444.575-.089.119-.151.219-.321.073-.147-.127-.172-.205-.035-.352.157-.17.289-.363.429-.549.119-.159.182-.321-.01-.475-.192-.153-.364-.088-.506.07-.148.165-.28.344-.41.524-.099.138-.158.246-.361.087-.218-.17-.073-.256.017-.374l.409-.527c.118-.152.166-.31-.011-.449-.165-.129-.341-.133-.485.033a9.1 9.1 0 0 0-.452.568c-.101.137-.171.209-.35.068-.168-.132-.123-.204-.021-.33.254-.315.495-.639.747-.954.045-.056.075-.177.176-.123.094.05.249.178.235.207-.09.2.057.136.142.154.308.066.555.213.586.559.014.16.1.1.181.101.37.004.698.299.692.62m9.342 4.289c-.182-.067-.287.064-.371.264-.041.098-.046.258-.218.245-.127-.01-.306.017-.367-.054-.066-.078.074-.207.13-.31.331-.611.667-1.219 1-1.829.06-.111.113-.193.273-.168.153.024.248.06.303.223.229.676.474 1.347.706 2.023.029.087.159.227.029.269a.517.517 0 0 1-.461-.063.042.042 0 0 1-.014-.025c-.047-.648-.553-.515-1.01-.575" clip-rule="evenodd"/><path fill="#FEFEFE" fill-rule="evenodd" d="M164.453 43.837c.002-.59.213-.892.621-1 .418-.112.775.025 1 .426.24.43.386.889.279 1.394-.068.32-.277.513-.577.599-.309.089-.605.053-.839-.195-.354-.374-.458-.841-.484-1.224" clip-rule="evenodd"/><path fill="#FDFDFD" fill-rule="evenodd" d="M173.088 41.153a.773.773 0 0 1-.69.787c-.238.031-.182.102-.083.227.088.11.165.23.257.337.129.149.183.258-.039.392-.15.09-.2.047-.281-.065-.399-.546-.805-1.087-1.203-1.634-.04-.054-.158-.115-.059-.196.087-.072.169-.219.297-.16.097.044.108.064.152-.05.159-.402.555-.632.925-.56.415.082.728.48.724.922m-12.718 4.935c-.261-.002-.472-.03-.654-.151-.076-.05-.261-.097-.133-.226.088-.09.148-.366.388-.16a.53.53 0 0 0 .539.102c.144-.049.256-.123.261-.292.004-.155-.091-.24-.226-.286-.18-.063-.364-.116-.543-.182-.244-.09-.41-.255-.441-.526-.033-.286.068-.523.315-.672.372-.224.765-.234 1.156-.051.061.028.226.066.111.179-.093.09-.135.331-.346.212-.19-.107-.373-.144-.574-.053-.11.05-.18.13-.18.256 0 .115.07.194.167.232.158.064.324.11.486.164.434.147.587.35.559.745-.025.354-.267.605-.661.68-.089.017-.179.024-.224.03m-4.279-2.899c.258.006.502.066.709.222.069.053.246.125.119.228-.097.08-.198.34-.403.127a.584.584 0 0 0-.439-.17c-.139 0-.259.044-.312.192-.055.157.032.253.147.326.153.097.317.177.469.275.313.2.405.426.325.771-.069.296-.29.492-.617.538-.378.053-.723-.029-1.013-.283-.068-.06-.232-.154-.08-.25.105-.068.214-.327.41-.078.145.185.351.27.592.196.271-.083.328-.318.114-.501-.113-.097-.252-.164-.383-.239-.415-.237-.542-.466-.45-.82.091-.35.377-.538.812-.533m-12.476-6.163c-.028-.015-.058-.024-.077-.043-.028-.029-.047-.065-.07-.098-.169-.24-.295-.605-.519-.68-.202-.068-.462.257-.687.42-.174.126-.201-.021-.265-.109-.069-.092-.176-.172-.004-.288a94.207 94.207 0 0 0 1.745-1.203c.112-.078.159-.053.229.053.239.362.482.722.74 1.07.117.16.001.196-.089.272-.107.09-.173.097-.255-.035-.144-.231-.314-.446-.459-.676-.079-.126-.141-.129-.262-.05-.359.233-.362.226-.115.588.092.134.188.264.271.402.036.06.149.116.066.202-.067.07-.162.116-.249.175m8.955 7.545c-.037-.422-.08-.845-.108-1.267-.007-.093-.079-.276.051-.27.148.008.384.008.393.276.01.272.029.544.048.816.004.056.015.148.046.158.062.023.09-.06.126-.103.156-.186.33-.36.457-.565.163-.261.34-.116.515-.052.102.038.02.096-.012.133-.477.549-.947 1.104-1.438 1.64-.212.23-.609.22-.863.035-.132-.096-.037-.174-.001-.257.034-.078.048-.152.186-.095.369.151.62-.047.6-.45m17.932-1.372c-.573 0-.919-.294-.988-.715-.069-.425.211-.852.656-1.002.372-.125.75.045.967.418.063.108.04.151-.056.206-.28.16-.556.325-.832.493-.044.027-.134.04-.108.113.016.048.08.09.133.111.226.092.498-.021.61-.306.09-.226.244-.17.363-.117.171.078.029.215-.017.295-.189.333-.488.497-.728.504m-21.198.01a.992.992 0 0 1-.938-.696.86.86 0 0 1 .362-.952c.314-.208.772-.164 1.098.106.308.254.356.763.119 1.099-.08.113-.139.067-.219.019-.276-.167-.557-.325-.829-.498-.149-.095-.171-.013-.171.104-.001.234.24.43.522.446.081.005.186-.077.243.042.042.088.14.182.082.274-.056.09-.185.043-.269.056m23.583-3.393c.017-.506.489-.945 1.004-.933.457.01.837.413.825.872-.013.512-.511.975-1.024.952a.856.856 0 0 1-.805-.89m-28.719-2.626c.496-.006.959.455.974.97a.863.863 0 0 1-.826.873c-.502.017-.986-.464-.992-.986a.872.872 0 0 1 .844-.857m19.921 6.362c-.025.086-.061.201-.094.317-.156.543-.335 1.08-.459 1.629-.072.317-.304.278-.504.303-.145.018-.045-.097-.031-.143.173-.59.346-1.179.532-1.765.062-.197.018-.25-.183-.207-.265.057-.537.086-.801.15-.194.046-.161-.1-.187-.191-.028-.097-.052-.19.11-.214.418-.065.833-.15 1.249-.224.297-.053.374.013.368.345m11.837-7.307a.913.913 0 0 1 .477-.758c.066-.039.19-.13.228-.02.039.108.134.282-.061.365a.424.424 0 0 0-.237.218c-.036.08-.052.158.031.216.07.05.135.012.19-.035.115-.099.222-.207.342-.299.165-.127.342-.155.533-.042.191.113.253.283.222.489-.052.35-.234.62-.548.786-.057.03-.178.145-.215-.012-.025-.11-.158-.27.07-.344.138-.045.253-.125.305-.272.031-.09.048-.184-.043-.246-.079-.054-.155-.008-.219.046-.114.099-.221.206-.339.3-.145.117-.305.149-.478.054a.462.462 0 0 1-.258-.446m-1.03 1.234c.157-.18.165-.327-.07-.456-.213-.117-.011-.208.039-.302.06-.114.138-.163.246-.038.159.184.304.191.422-.046.07-.14.147-.106.255-.024.114.086.148.152.035.252-.197.174-.154.306.059.428.104.06.195.143.286.223.17.15.308.118.417-.07.04-.068.059-.171.163-.074.072.069.198.102.144.26-.146.423-.551.565-.909.304-.106-.077-.217-.151-.308-.244-.201-.206-.382-.26-.548.033-.178.014-.256-.067-.231-.245" clip-rule="evenodd"/><path fill="#FCFCFC" fill-rule="evenodd" d="M152.621 42.067c-.029.079-.041.117-.057.154-.284.679-.575 1.355-.849 2.038-.073.183-.16.144-.293.091-.143-.057-.2-.109-.125-.28.296-.674.572-1.356.858-2.034.035-.082.046-.216.2-.123.092.057.229.051.266.154m22.276-4.586a.4.4 0 0 0 .23.246c.004.072-.056.099-.097.141-.255.27-.249.463.027.722.124.117.253.23.381.345.109.097.239.156.068.343-.165.181-.244.115-.376-.012-.276-.266-.566-.519-.847-.78-.059-.055-.188-.099-.122-.201.065-.103.147-.274.275-.237.144.042.123-.016.13-.099.02-.22.123-.381.331-.468m-28.94 1.352c-.091.103-.034.115.038.111a.505.505 0 0 1 .335.118c.102.077.196.156.054.287-.102.094-.161.217-.319.036-.207-.236-.416-.217-.65.01-.138.132-.282.263-.396.415-.142.188-.231.114-.369-.008-.166-.147-.049-.215.042-.308.276-.28.547-.565.827-.841.056-.056.106-.194.206-.118.099.074.244.144.232.298m5.667 3.779c.01.214-.176.345-.326.275-.269-.126-.461-.068-.605.198-.106.195-.21.392-.291.598-.072.181-.167.117-.282.066-.123-.054-.21-.101-.125-.264.196-.376.376-.76.565-1.138.033-.065.036-.198.134-.161.118.044.321.062.312.22-.011.184.069.085.128.075a.554.554 0 0 1 .49.13" clip-rule="evenodd"/><path fill="#0078C5" fill-rule="evenodd" d="M150.197 6.121c-.511 0-.968-.486-.959-1.017.009-.477.444-.899.928-.899.498 0 .954.493.95 1.028a.903.903 0 0 1-.919.888" clip-rule="evenodd"/><path fill="#0179C6" fill-rule="evenodd" d="M180.271 15.726c-.027.231-.154.354-.375.361-.202.007-.508-.397-.519-.669-.003-.074.526-.4.605-.341.212.156.232.418.289.65M154.332 4.113a.55.55 0 0 1-.532.546c-.272.003-.552-.283-.558-.572a.565.565 0 0 1 .56-.556c.293.001.529.26.53.582" clip-rule="evenodd"/><path fill="#027AC6" fill-rule="evenodd" d="M140.101 17.188c.156-.027.176.042.139.188-.182.724-.18.726-.755.241-.114-.096-.343-.2-.305-.3.058-.152.283-.05.434-.073.159-.026.32-.037.487-.056m-.831 8.357c.073.244-.063.214-.234.15-.225-.084-.454-.16-.68-.242-.055-.02-.151-.056-.149-.079.006-.076.094-.084.153-.115a2.86 2.86 0 0 1 .244-.116c.201-.083.41-.31.588-.22.101.05.056.391.078.622" clip-rule="evenodd"/><path fill="#0178C6" fill-rule="evenodd" d="M180.773 19.927c-.002.277-.281.532-.59.537a.547.547 0 0 1-.552-.556c.004-.299.257-.531.581-.535a.554.554 0 0 1 .561.554" clip-rule="evenodd"/><path fill="#0179C6" fill-rule="evenodd" d="M139.208 19.331c-.107.148.068.492-.245.52-.186.015-.516.066-.573-.22-.07-.355.194-.721.44-.72.216.002.373.163.378.42" clip-rule="evenodd"/><path fill="#037BC7" fill-rule="evenodd" d="M141.834 12.896c-.004-.291.253-.549.507-.512.13.019.18.068.095.194-.094.141-.177.29-.274.43-.053.075-.078.233-.185.195-.107-.037-.146-.18-.143-.307m38.444 5.036c-.023.056-.052.14-.093.219-.034.063-.094.117-.166.117-.098 0-.079-.099-.098-.16-.059-.18-.117-.361-.167-.544-.014-.053-.069-.115-.012-.167.064-.06.13-.006.195.015.24.075.304.27.341.52M147.397 6.79c.123.013.247.05.294.144.053.105-.092.13-.151.185-.11.1-.231.192-.357.272-.068.043-.13.171-.223.092-.065-.055-.05-.17-.033-.26.05-.262.243-.37.47-.433" clip-rule="evenodd"/><path fill="#0178C6" fill-rule="evenodd" d="M165.496 4.11c.009-.321.25-.58.539-.579a.547.547 0 0 1 .551.558c-.011.335-.263.585-.573.573a.53.53 0 0 1-.517-.552m11.561 8.83a.55.55 0 0 1-.519-.556c.012-.281.327-.56.619-.549.277.011.541.294.528.564-.014.286-.319.548-.628.54m-4.363-5.905c.271-.008.561.266.564.532.004.276-.307.605-.576.612-.261.007-.563-.28-.565-.54-.002-.288.292-.596.577-.604" clip-rule="evenodd"/><path fill="#027BC6" fill-rule="evenodd" d="M162.043 3.324c.089.046.291-.093.296.154.004.192-.222.401-.428.388-.174-.012-.372-.057-.351-.283.025-.278.261-.255.483-.259" clip-rule="evenodd"/><path fill="#0178C6" fill-rule="evenodd" d="M180.47 22.533c-.332-.004-.544-.225-.536-.556a.554.554 0 0 1 .579-.534.564.564 0 0 1 .546.572c-.013.31-.255.522-.589.518" clip-rule="evenodd"/><path fill="#037BC6" fill-rule="evenodd" d="M155.69 4.193c-.165-.001-.273-.068-.272-.249.001-.175.308-.363.59-.373.162-.005.146.105.143.204-.008.246-.206.424-.461.418" clip-rule="evenodd"/><path fill="#030303" fill-rule="evenodd" d="M168.3 42.112c.207.016.307.127.315.312.008.167-.401.481-.626.492-.062.003-.346-.443-.298-.502.156-.192.396-.239.609-.302" clip-rule="evenodd"/><path fill="#060606" fill-rule="evenodd" d="M158.181 45.026c-.4-.023-.404-.025-.219-.388.085-.165.117-.362.272-.489l.176.525.011.028c.104.343.104.343-.24.324" clip-rule="evenodd"/><path fill="#010101" fill-rule="evenodd" d="M164.885 43.765c.002-.276.07-.47.313-.538.236-.065.383.082.489.264.18.31.279.643.242 1.007-.019.189-.11.32-.298.373-.196.055-.332-.045-.437-.19-.208-.284-.285-.615-.309-.916" clip-rule="evenodd"/><path fill="#020202" fill-rule="evenodd" d="M172.144 41.649a.498.498 0 0 1-.47-.493c.002-.255.258-.506.507-.498a.52.52 0 0 1 .473.498.526.526 0 0 1-.51.493" clip-rule="evenodd"/><path fill="#0B0B0B" fill-rule="evenodd" d="M170.654 41.96c-.053.039-.091.07-.133.095-.136.083-.273.166-.412.244-.056.03-.11.115-.174.067-.067-.05-.061-.139-.039-.223.071-.272.425-.434.641-.288.039.027.07.063.117.106m-21.405-.211c.16.026.298.086.392.214.074.102.132.23.039.334-.099.111-.169-.042-.251-.075a1.227 1.227 0 0 1-.258-.155c-.068-.05-.209-.054-.186-.161.025-.12.164-.129.264-.157" clip-rule="evenodd"/><path fill="#020202" fill-rule="evenodd" d="M174.291 39.788a.517.517 0 0 1-.506.494.482.482 0 0 1-.474-.482.505.505 0 0 1 .499-.497.502.502 0 0 1 .481.485m-29.558-1.681c.009.239-.226.485-.475.497-.257.013-.507-.225-.512-.487a.499.499 0 0 1 .465-.5c.248-.01.512.236.522.49" clip-rule="evenodd"/><path fill="#fff" d="M227.515 47.47c-12.918 0-23.386-10.532-23.386-23.422 0-12.938 10.516-23.423 23.386-23.423 12.869 0 23.385 10.533 23.385 23.423.048 12.89-10.468 23.423-23.385 23.423z"/><path fill="#216FB5" fill-rule="evenodd" d="M203.553 24c0-13.226 10.756-24 23.962-24 13.253 0 24.009 10.774 23.961 24 0 13.226-10.756 24-23.961 24-13.206 0-23.962-10.725-23.962-24zm46.771 0c0-12.601-10.228-22.846-22.809-22.846-12.582 0-22.81 10.245-22.81 22.846s10.228 22.846 22.81 22.846c12.581 0 22.809-10.245 22.809-22.846z" clip-rule="evenodd"/><path fill="#216FB5" d="m207.49 31.166-.24-.673 3.266-1.106.24.673-3.266 1.106zm.673-2.26c-.289-.096-.481-.289-.577-.625-.096-.482.192-.914.721-1.01l1.584-.337.144.625-1.488.337c-.24 0-.384.192-.336.48.048.29.336.434.672.386l1.344-.29.145.626-2.401.53-.145-.626.337-.096zm-.721-1.924-.048-.337h-.24c-.576.048-.864-.384-.864-1.01l.48-.048c0 .289.048.433.336.433h.192l-.048-.433.48-.096.048.433 2.017-.24.048.673-2.017.24.048.337-.432.048z"/><path fill="#216FB5" fill-rule="evenodd" d="M207.154 23.904c0 .77.576 1.298 1.297 1.298.72 0 1.296-.529 1.296-1.25 0-.77-.576-1.299-1.296-1.299-.721-.048-1.297.481-1.297 1.25zm.528 0c0-.433.337-.625.817-.625.48 0 .768.24.816.625 0 .433-.336.625-.816.625-.48 0-.817-.24-.817-.625z" clip-rule="evenodd"/><path fill="#216FB5" d="M207.778 21.547c-.24-.192-.384-.385-.336-.673 0-.048 0-.096.048-.145l.577.049c-.096.432.096.77.624.817l1.2.144-.096.626-2.497-.24.096-.626.384.048zm-.288-1.347.192-.625.337.096c-.193-.192-.289-.48-.193-.817a.786.786 0 0 1 .625-.53c-.192-.24-.288-.528-.192-.817.144-.481.528-.673 1.056-.53l1.585.434-.192.625-1.489-.433c-.288-.096-.432 0-.528.24-.096.241.096.482.384.578l1.393.385-.193.625-1.488-.433c-.288-.096-.432 0-.528.24-.048.24.096.481.384.578l1.392.384-.192.626-2.353-.626z"/><path fill="#216FB5" fill-rule="evenodd" d="M211.428 16.545c.144-.385.096-.625 0-.818.096.048.192.097.192 0l.288-.577c-.048.048-.144.048-.336-.048l-1.104-.529c-.481-.24-.913-.144-1.249.53-.288.624-.096 1.105.288 1.298l.24-.53c-.192-.096-.24-.288-.096-.576.096-.24.288-.337.432-.24.192.095.144.288 0 .672-.144.53-.192 1.01.289 1.25.432.241.816 0 1.056-.432zm-.912-1.202.336.144c.24.096.336.385.192.77-.096.192-.24.288-.432.192-.24-.096-.24-.289-.144-.625 0-.104.013-.193.026-.276.011-.071.022-.138.022-.205z" clip-rule="evenodd"/><path fill="#216FB5" d="m209.939 13.852.192-.289-.672-.385.336-.529.673.385.24-.337.384.24-.24.338 1.104.673c.144.096.24.048.336-.096.048-.048.096-.145.096-.145l.384.24s-.048.145-.192.338c-.192.288-.48.48-.864.24l-1.2-.77-.193.29-.384-.193z"/><path fill="#216FB5" fill-rule="evenodd" d="m210.564 11.206-.385.53.481.336.384-.529-.48-.337zm.768.578-.384.529 1.969 1.442.384-.529-1.969-1.443zm1.056-1.395c-.528.577-.432 1.346.096 1.827.577.481 1.345.481 1.825-.096.528-.577.432-1.346-.096-1.827-.528-.481-1.296-.481-1.825.096zm.384.288c.241-.288.673-.24 1.009.097.336.336.432.721.192 1.01-.288.288-.672.24-1.008-.097-.385-.336-.481-.721-.193-1.01z" clip-rule="evenodd"/><path fill="#216FB5" d="M214.405 8.946c-.048-.337.048-.577.336-.77.384-.336.913-.24 1.249.145l1.008 1.25-.48.433-.96-1.154c-.192-.193-.385-.24-.625-.097-.24.193-.24.481 0 .77l.913 1.058-.48.433-1.585-1.876.48-.433.144.24zm2.833-.866.577-.337c.24.337.528.385.96.145.288-.193.528-.433.384-.722-.144-.288-.48-.192-1.008-.048-.625.193-1.201.289-1.537-.336-.336-.578 0-1.155.672-1.54.673-.384 1.297-.288 1.681.289l-.576.337c-.192-.289-.528-.289-.817-.145-.336.193-.48.433-.336.674.144.24.384.192.865.048.672-.193 1.296-.337 1.632.337.336.625.048 1.202-.672 1.587-.768.433-1.441.336-1.825-.289z"/><path fill="#216FB5" fill-rule="evenodd" d="M220.648 4.81c-.673.24-.961.962-.721 1.635.241.721.865 1.106 1.681.818.576-.241.816-.722.768-1.155l-.624.24c0 .193-.096.337-.336.434-.384.096-.624-.049-.816-.385l1.68-.625c-.288-.818-.864-1.251-1.632-.962zm.816.77-1.008.384c-.048-.289 0-.53.336-.722.288-.096.528.049.672.337z" clip-rule="evenodd"/><path fill="#216FB5" d="M222.424 5.58c-.144-.722.193-1.396.913-1.54.624-.144 1.104.144 1.296.673l-.624.097c-.096-.193-.288-.337-.528-.289-.384.096-.528.433-.432.866.096.433.336.721.72.625.24-.048.432-.24.384-.529l.624-.144c.048.529-.24 1.01-.912 1.154-.672.24-1.297-.192-1.441-.914zm4.274.576v-.288c-.144.24-.336.384-.672.384-.528.049-.864-.288-.912-.817l-.097-1.635.625-.048.096 1.539c0 .288.144.432.432.432.288 0 .48-.288.432-.577l-.096-1.394.672-.049.192 2.453h-.672zm1.681-2.068c.192-.288.336-.385.624-.385.048 0 .096 0 .144.049l-.048.577c-.432-.048-.72.144-.768.673l-.048 1.202-.672-.048.096-2.453.624.049.048.336z"/><path fill="#216FB5" fill-rule="evenodd" d="m230.348 2.886-.673-.048v.529l.625.096.048-.577zm-.144.962-.625-.048-.288 2.452.624.049.289-2.453z" clip-rule="evenodd"/><path fill="#216FB5" d="m230.636 3.896.288.048.144-.77.624.097-.144.77.432.095-.096.433-.432-.096-.192 1.299c-.048.192.048.24.192.288.096 0 .192.048.192.048l-.096.481s-.144 0-.384-.048c-.288-.048-.624-.24-.528-.721l.288-1.443-.384-.048.096-.433zm1.104 3.03.24.048c.24.096.384 0 .433-.192.048-.145.048-.289 0-.674l-.145-1.876.673.193.048 1.154v.577s.144-.288.288-.48l.672-.963.624.193-1.536 2.164c-.336.481-.576.625-1.057.481l-.384-.096.144-.53zm4.61-2.356.864.48-.432 1.732c-.096.432-.24.913-.24.913s.336-.384.624-.721l1.249-1.25.864.48-1.632 2.982-.577-.336.961-1.732c.144-.24.384-.625.384-.625s-.24.337-.432.48l-1.489 1.492-.576-.337.48-2.068c.048-.24.192-.625.192-.625s-.192.385-.336.625l-.96 1.732-.577-.289 1.633-2.934z"/><path fill="#216FB5" fill-rule="evenodd" d="M238.463 9.956c.336.24.528.24.768.192-.096.097-.144.193-.048.24l.48.386c0-.097.048-.193.145-.337l.768-.962c.336-.433.336-.866-.24-1.347-.576-.48-1.057-.385-1.345-.048l.432.385c.144-.144.337-.144.577.048.24.144.24.337.144.481-.096.144-.288.048-.625-.144-.48-.289-.912-.433-1.248 0-.288.384-.192.77.192 1.106zm1.345-.577-.241.288c-.144.193-.432.24-.72 0-.192-.144-.24-.288-.096-.48.144-.193.288-.145.624 0 .144.096.288.192.433.192z" clip-rule="evenodd"/><path fill="#216FB5" d="M241.728 9.956c.336-.048.577 0 .817.24.336.385.288.866-.096 1.25l-1.153 1.107-.432-.48 1.104-1.059c.192-.192.241-.433.048-.625-.192-.193-.528-.193-.768.048l-1.008.962-.432-.481 1.776-1.684.432.481-.288.24z"/><path fill="#216FB5" fill-rule="evenodd" d="M241.824 13.467c.288.337.481.385.721.385a1.047 1.047 0 0 0-.24.192l.384.53c0-.097.096-.193.24-.29l1.008-.72c.48-.338.576-.77.144-1.396-.432-.577-.912-.625-1.296-.384l.336.48c.24-.096.384-.048.576.193.144.24.144.433 0 .529-.144.096-.288-.048-.576-.337-.384-.384-.768-.673-1.201-.336-.384.288-.384.721-.096 1.154zm1.489-.144-.288.192a.638.638 0 0 1-.768-.192c-.097-.193-.145-.337.048-.481.192-.145.384-.048.624.192.057.038.107.084.155.128a.645.645 0 0 0 .229.16zm-.288 1.972-.288-.578c-.384.289-.48.77-.192 1.443.192.337.384.577.672.674.24.096.528.048.816-.097l2.017-1.058-.288-.577-.24.096c.096-.24.096-.48-.048-.77-.288-.528-.865-.72-1.537-.384-.624.337-.768 1.01-.528 1.491.192.289.384.385.576.433l-.24.144c-.288.145-.528.096-.72-.24-.144-.289-.096-.481 0-.577zm2.113-.53c.144.337 0 .674-.336.818-.337.192-.673.192-.865-.192-.144-.337-.048-.626.336-.818.385-.192.721-.096.865.192zm1.632 2.453c-.24-.673-.96-.962-1.632-.721-.721.24-1.105.866-.865 1.683.24.578.721.818 1.153.77l-.192-.625c-.192 0-.336-.097-.432-.337-.096-.385.048-.625.384-.818l.576 1.684c.864-.289 1.248-.866 1.008-1.636zm-.816.818-.384-1.01c.336-.048.576.048.72.337.096.288-.048.529-.336.673z" clip-rule="evenodd"/><path fill="#216FB5" d="m247.299 18.95.096.625-.337.048c.241.096.433.289.529.625a.716.716 0 0 1-.336.722c.288.144.48.337.528.673.096.53-.192.866-.721.962l-1.632.289-.096-.625 1.536-.241c.289-.048.385-.192.337-.433-.048-.288-.289-.385-.625-.336l-1.392.24-.096-.625 1.536-.24c.288-.049.384-.193.336-.434-.048-.24-.288-.384-.624-.336l-1.392.24-.096-.721 2.449-.433z"/><path fill="#216FB5" fill-rule="evenodd" d="M247.923 24.337c0-.722-.576-1.25-1.297-1.25-.72-.049-1.296.432-1.248 1.298-.048.625.336 1.01.768 1.106v-.625c-.192-.096-.288-.24-.288-.481 0-.385.24-.577.624-.626l-.048 1.78c.865 0 1.489-.433 1.489-1.202zm-1.057.48v-1.106c.337.097.529.24.529.578 0 .288-.24.529-.529.529z" clip-rule="evenodd"/><path fill="#216FB5" d="M247.347 26.645c.24.24.336.481.288.818-.096.48-.528.77-1.057.721l-1.584-.288.096-.626 1.488.241c.24.048.48-.096.529-.337.048-.288-.145-.529-.481-.577l-1.392-.192.096-.626 2.449.385-.096.625-.336-.144zm-.048 2.02-.096.337.72.192-.144.626-.721-.193-.096.385-.432-.096.096-.385-1.248-.337c-.192-.048-.24.048-.288.193 0 .096-.048.192-.048.192l-.481-.144s.048-.144.097-.385c.096-.288.288-.625.72-.48l1.392.384.096-.337.433.048zm-29.148 12.169c.432-.914 1.296-1.347 2.209-.914.768.336 1.008 1.01.768 1.635l-.624-.288c.096-.337-.048-.626-.433-.818-.576-.24-1.056.096-1.344.673-.288.625-.192 1.203.336 1.443.384.144.72.048.912-.24l.625.288c-.144.24-.384.481-.673.577-.24.096-.576.096-1.008-.144-.864-.385-1.152-1.299-.768-2.212z"/><path fill="#216FB5" fill-rule="evenodd" d="M222.472 41.651c-.672-.192-1.296.24-1.488.914-.192.721.096 1.347.912 1.635.576.145 1.057-.096 1.249-.48l-.625-.193c-.096.144-.288.192-.528.144-.336-.096-.48-.385-.432-.77l1.681.482c.192-.818 0-1.54-.769-1.732zm.241 1.154-1.009-.288c.096-.289.336-.481.672-.337.289.048.385.337.337.626z" clip-rule="evenodd"/><path fill="#216FB5" d="M224.393 42.565c.192-.24.384-.337.673-.288.048 0 .096 0 .144.048l-.096.529c-.385-.097-.721.048-.817.577l-.192 1.154-.624-.096.384-2.405.624.096-.096.385zm.913-.24.336.048.048-.77.624.048-.048.77.432.048-.048.433-.432-.096-.096 1.298c0 .193.096.24.24.24h.192l-.048.482h-.384c-.288-.048-.624-.193-.624-.626l.096-1.395-.336-.048.048-.432z"/><path fill="#216FB5" fill-rule="evenodd" d="M227.922 41.507h-.853v.577h.853v-.577zm-.066.914h-.852l-.066 2.405h.853l.065-2.405z" clip-rule="evenodd"/><path fill="#216FB5" fill-rule="evenodd" d="m229.435 41.41.625-.047.048.577-.625.048-.048-.577zm-1.584 1.059.336-.048v-.193c-.048-.577.384-.817 1.008-.817l.048.48c-.288 0-.432.049-.432.29v.192l.432-.048.048.432-.432.049.144 1.972-.624.048-.144-1.972-.336.048-.048-.433zm2.305-.193-.625.049.192 2.404.625-.048-.192-2.404zm1.344-.336c-.672.144-1.008.77-.864 1.49.192.722.72 1.155 1.44.963.625-.145.913-.578.913-1.01l-.625.144c0 .192-.144.337-.384.385-.336.096-.576-.096-.72-.433l1.729-.385c-.192-.818-.721-1.347-1.489-1.154zm.768.866-1.056.24c0-.337.096-.529.432-.625.288-.096.528.096.624.385zm1.489-1.491c-.576.192-.768.817-.528 1.539.288.721.864 1.058 1.44.865.289-.144.481-.336.529-.625l.096.289.576-.193-1.201-3.174-.576.24.432 1.155c-.192-.145-.432-.193-.768-.096zm.288.432c.384-.144.672.097.817.53.144.384.096.72-.337.913-.288.096-.576-.096-.72-.529-.144-.433-.096-.77.24-.914z" clip-rule="evenodd"/><path fill="#D7D8D2" d="M227.515 38.91c-8.164 0-14.839-6.686-14.839-14.91 0-8.225 6.675-14.862 14.839-14.862 8.163 0 14.838 6.686 14.838 14.862s-6.627 14.91-14.838 14.91z"/><path fill="#216FB5" fill-rule="evenodd" d="M212.1 24c0-8.513 6.915-15.439 15.415-15.439 8.547 0 15.462 6.926 15.414 15.439 0 8.513-6.915 15.439-15.414 15.439-8.5 0-15.415-6.926-15.415-15.439zm29.676 0c0-7.888-6.386-14.285-14.261-14.285-7.828 0-14.262 6.445-14.262 14.285 0 7.888 6.386 14.285 14.262 14.285 7.875 0 14.261-6.397 14.261-14.285z" clip-rule="evenodd"/><path fill="#D7D8D2" d="m237.935 31.407-7.155-3.175a10.242 10.242 0 0 0-6.675-.048l-7.107 3.656-2.593-11.591c0-2.261 1.681-4.089 3.698-4.089 0 0 7.059.818 9.412.818 2.449 0 9.651-.673 9.651-.673 2.161 0 3.842 1.971 3.842 4.328l-3.073 10.774z"/><path fill="#216FB5" d="M221.704 32.85c.432-.337.913-.578.913-1.01 0-.337-.193-.53-.481-.53-.336 0-.528.241-.576.722h-.624c0-.77.384-1.299 1.2-1.299.769 0 1.153.53 1.153 1.107 0 .625-.432.961-.865 1.25-.288.192-.576.385-.672.625h1.585v.577h-2.449c0-.769.432-1.154.816-1.442zm3.602-1.491h-1.681v-.578h2.449v.578a4.36 4.36 0 0 0-1.249 2.885h-.72c0-1.298.672-2.356 1.201-2.885z"/><path fill="#216FB5" fill-rule="evenodd" d="M227.755 30.685c-.865 0-1.441.674-1.441 1.78 0 1.106.528 1.827 1.441 1.78.912 0 1.44-.674 1.44-1.78 0-1.106-.576-1.78-1.44-1.78zm0 .578c.528 0 .72.48.72 1.202 0 .77-.192 1.202-.72 1.202-.529 0-.721-.48-.721-1.202s.192-1.203.721-1.203zm3.169-.578c-.864 0-1.441.674-1.441 1.78 0 1.106.529 1.827 1.441 1.78.912 0 1.44-.674 1.44-1.78 0-1.106-.576-1.78-1.44-1.78zm-.048.578c.528 0 .72.48.72 1.202 0 .77-.192 1.202-.72 1.202s-.72-.48-.72-1.202.192-1.203.72-1.203z" clip-rule="evenodd"/><path fill="#216FB5" d="M233.373 31.791h-.768v-.432c.432 0 .816-.193.864-.626h.576v3.463h-.672v-2.404zm-12.005-12.024-.288-.048c-.288-.048-.72-.048-.912-.048v5.772c.192 0 .624 0 .912-.048l.288-.048v1.587l-2.401-.048-2.401.048-.048-1.684.288.049c.288.048.72.048.913.048v-5.772c-.193 0-.625 0-.913.048l-.288.144.048-1.587 2.401.048 2.401-.048v1.587zm7.587 1.203h-1.537v-.289c0-.673-.912-1.154-1.68-1.154-.865 0-1.441.24-1.441.625 0 1.636 5.33.914 5.33 4.473 0 1.54-1.392 2.357-3.889 2.357-.721 0-1.681-.289-2.305-.77v.818l-1.537-.048v-3.03h1.681c.096.962 1.152 1.539 2.161 1.539.912 0 1.392-.24 1.392-.673 0-1.78-4.994-1.059-4.994-4.33 0-1.586 1.249-2.452 3.602-2.452.624 0 1.296.192 1.825.53v-.674h1.392v3.078z"/><path fill="#216FB5" fill-rule="evenodd" d="M229.867 22.509c0 2.886 1.537 4.425 4.322 4.425s4.322-1.54 4.322-4.425c0-2.886-1.489-4.425-4.322-4.425s-4.322 1.54-4.322 4.425zm2.401 0c0-1.924.577-2.982 1.681-2.982 1.393 0 2.161 1.058 2.161 2.982 0 1.924-.576 2.982-1.681 2.982-1.392 0-2.161-1.058-2.161-2.982z" clip-rule="evenodd"/><path fill="#1E3861" d="M295.116 0c-13.233 0-23.962 10.61-23.962 23.696v.608C271.154 37.39 281.882 48 295.116 48s23.962-10.61 23.962-23.696v-.608C319.078 10.61 308.35 0 295.116 0z"/><path fill="#F5F5F5" d="M288.644 24.73v-7.855h-9.584l.312 2.411-1.247 2.878.935.855.312 3.422 1.792 1.711v1.011l2.104 3.033v1.4l3.272 4.2v2.877h2.961l5.142 3.267v2.1l7.48-1.09v-5.21l-13.479-15.01z"/><path fill="#F5F5F5" fill-rule="evenodd" d="M305.004 25.639h-.518v-1.023c0-1.413-1.161-2.559-2.592-2.559-1.43 0-2.591 1.146-2.591 2.559v1.023h-.518a1.03 1.03 0 0 0-1.037 1.023v5.117a1.03 1.03 0 0 0 1.037 1.024h6.219a1.03 1.03 0 0 0 1.037-1.023v-5.118a1.03 1.03 0 0 0-1.037-1.023zm-3.11 4.605a1.03 1.03 0 0 1-1.036-1.023 1.03 1.03 0 0 1 1.036-1.023 1.03 1.03 0 0 1 1.037 1.023 1.03 1.03 0 0 1-1.037 1.023zm-1.606-4.605h3.213v-1.023c0-.875-.72-1.587-1.607-1.587-.886 0-1.606.712-1.606 1.587v1.023z" clip-rule="evenodd"/><path fill="#fff" d="M284.884 15.553c-2.03 0-3.721-1.423-3.721-3.671 0-2.249 1.753-3.681 3.701-3.681 2.009 0 3.044 1.194 3.332 2.338l-1.333.408c-.174-.677-.738-1.423-1.999-1.423-1.087 0-2.235.756-2.235 2.358 0 1.502 1.086 2.328 2.255 2.328 1.241 0 1.846-.786 2.04-1.443l1.323.388c-.277 1.085-1.323 2.398-3.363 2.398zm7.749 0c-2.03 0-3.721-1.423-3.721-3.671 0-2.249 1.753-3.681 3.701-3.681 2.009 0 3.045 1.194 3.332 2.338l-1.333.408c-.174-.677-.738-1.423-1.999-1.423-1.087 0-2.235.756-2.235 2.358 0 1.502 1.086 2.328 2.255 2.328 1.241 0 1.846-.786 2.04-1.443l1.323.388c-.277 1.085-1.323 2.398-3.363 2.398z"/><path fill="#fff" fill-rule="evenodd" d="M298.506 12.747h1.302c1.435 0 2.389-.915 2.389-2.198 0-1.274-.954-2.2-2.389-2.2h-2.717v7.055h1.415v-2.657zm1.128-1.184h-1.118v-2.02h1.118c.707 0 1.138.389 1.138 1.016 0 .607-.431 1.005-1.138 1.005zm7.409 2.229.605 1.612h1.538l-2.768-7.054h-1.64l-2.789 7.054h1.497l.605-1.612h2.952zm-2.48-1.253 1.004-2.667 1.005 2.667h-2.009z" clip-rule="evenodd"/></svg>