<svg width="83" height="84" viewBox="0 0 83 84" fill="none" xmlns="http://www.w3.org/2000/svg">
<g clip-path="url(#clip0_1_37025)">
<g opacity="0.2">
<path d="M27.1566 67.4202L24.2439 57.2445C23.7195 55.4124 23.4573 54.4964 23.6455 53.7394C23.8107 53.0752 24.2042 52.4902 24.7571 52.0868C25.3872 51.627 26.3345 51.5245 28.2291 51.3194L33.4064 50.7591C34.7885 50.6095 35.4795 50.5347 36.0691 50.7239C36.5889 50.8907 37.0515 51.2 37.4042 51.6167C37.8044 52.0892 37.9993 52.7564 38.3891 54.0907L41.2128 63.7556C41.7038 65.4362 41.9493 66.2765 41.7959 66.9963C41.661 67.6288 41.3198 68.1986 40.8259 68.6161C40.2638 69.0912 39.4072 69.2716 37.6939 69.6322L32.6056 70.7033C31.1069 71.0188 30.3576 71.1766 29.7096 71.0164C29.1391 70.8753 28.6245 70.5653 28.2332 70.1268C27.7888 69.6288 27.578 68.8926 27.1566 67.4202Z" fill="#4ABCFF"/>
<path d="M68.5452 28.8534C70.7025 39.1015 67.9779 48.3509 62.4597 49.5126C56.9415 50.6742 50.7192 43.3081 48.5619 33.06C46.4046 22.8118 49.1292 13.5624 54.6474 12.4008C60.1656 11.2391 66.3879 18.6052 68.5452 28.8534Z" fill="#4ABCFF"/>
</g>
<path d="M22.7186 51.9159L27.1566 67.4203C27.578 68.8927 27.7888 69.6289 28.2332 70.1269C28.6245 70.5653 29.1391 70.8754 29.7096 71.0164C30.3575 71.1766 31.1069 71.0189 32.6056 70.7034L37.6939 69.6323C39.4072 69.2716 40.2638 69.0913 40.8259 68.6161C41.3198 68.1986 41.661 67.6289 41.7958 66.9963C41.9493 66.2765 41.7038 65.4362 41.2128 63.7557L37.2928 50.3385M62.4597 49.5126C67.9779 48.351 70.7025 39.1016 68.5452 28.8534C66.3879 18.6053 60.1656 11.2392 54.6474 12.4008M62.4597 49.5126C56.9414 50.6742 50.7192 43.3082 48.5619 33.06C46.4046 22.8119 49.1292 13.5624 54.6474 12.4008M62.4597 49.5126L23.7601 50.5819C21.011 50.6579 19.6365 50.6959 18.4553 50.3954C16.0523 49.7841 14.0215 48.1822 12.8672 45.9877C12.2998 44.9091 12.0166 43.5635 11.4501 40.8723C10.8836 38.1811 10.6003 36.8355 10.6847 35.6197C10.8563 33.1461 12.069 30.8615 14.0216 29.3333C14.9814 28.5821 16.2546 28.0627 18.801 27.0239L54.6474 12.4008" stroke="#4ABCFF" stroke-width="3" stroke-linecap="round"/>
</g>
<defs>
<clipPath id="clip0_1_37025">
<rect width="70.0157" height="70.0157" fill="white" transform="translate(0.0316162 14.9541) rotate(-11.8876)"/>
</clipPath>
</defs>
</svg>
