<svg width="79" height="78" viewBox="0 0 79 78" fill="none" xmlns="http://www.w3.org/2000/svg">
<path opacity="0.2" d="M20.65 68.25H58.35C61.9903 68.25 63.8105 68.25 65.2009 67.5415C66.424 66.9184 67.4184 65.924 68.0415 64.7009C68.75 63.3105 68.75 61.4903 68.75 57.85V42.25L36.25 9.75H20.65C17.0097 9.75 15.1895 9.75 13.7991 10.4585C12.576 11.0816 11.5816 12.076 10.9585 13.2991C10.25 14.6895 10.25 16.5097 10.25 20.15V57.85C10.25 61.4903 10.25 63.3105 10.9585 64.7009C11.5816 65.924 12.576 66.9184 13.7991 67.5415C15.1895 68.25 17.0097 68.25 20.65 68.25Z" fill="#00B261"/>
<path d="M36.25 11.25H37.75V8.25H36.25V11.25ZM70.25 42.25V40.75H67.25V42.25H70.25ZM13.7991 67.5415L14.48 66.205L14.48 66.205L13.7991 67.5415ZM10.9585 64.7009L9.62195 65.3819L9.62195 65.3819L10.9585 64.7009ZM65.2009 67.5415L64.52 66.205L64.52 66.205L65.2009 67.5415ZM68.0415 64.7009L66.705 64.02L66.705 64.02L68.0415 64.7009ZM10.9585 13.2991L9.62195 12.6181L9.62195 12.6181L10.9585 13.2991ZM13.7991 10.4585L13.1181 9.12195L13.1181 9.12195L13.7991 10.4585ZM39.5 24.5H38V27.5H39.5V24.5ZM52.5 26H54V24.5H52.5V26ZM51 39V40.5H54V39H51ZM49.375 11.375C49.375 12.2034 50.0466 12.875 50.875 12.875C51.7034 12.875 52.375 12.2034 52.375 11.375H49.375ZM52.375 6.5C52.375 5.67157 51.7034 5 50.875 5C50.0466 5 49.375 5.67157 49.375 6.5H52.375ZM62.6172 13.7615L61.5565 14.8221L63.6779 16.9435L64.7385 15.8828L62.6172 13.7615ZM68.1857 12.4357L69.2463 11.375L67.125 9.25368L66.0643 10.3143L68.1857 12.4357ZM67.1583 26.125C66.3299 26.125 65.6583 26.7966 65.6583 27.625C65.6583 28.4534 66.3299 29.125 67.1583 29.125V26.125ZM72.0333 29.125C72.8618 29.125 73.5333 28.4534 73.5333 27.625C73.5333 26.7966 72.8618 26.125 72.0333 26.125V29.125ZM10.4789 41.8957C9.66018 41.7692 8.89399 42.3305 8.76757 43.1492C8.64115 43.9679 9.20237 44.7341 10.0211 44.8605L10.4789 41.8957ZM52.4885 26.8664C52.967 26.1901 52.8066 25.254 52.1303 24.7755C51.4541 24.297 50.518 24.4574 50.0395 25.1336L52.4885 26.8664ZM58.35 66.75H20.65V69.75H58.35V66.75ZM11.75 57.85V20.15H8.75V57.85H11.75ZM20.65 11.25H36.25V8.25H20.65V11.25ZM67.25 42.25V57.85H70.25V42.25H67.25ZM20.65 66.75C18.8051 66.75 17.5116 66.7488 16.503 66.6664C15.5118 66.5854 14.9286 66.4336 14.48 66.205L13.1181 68.8781C14.06 69.358 15.082 69.5603 16.2587 69.6565C17.4178 69.7512 18.8546 69.75 20.65 69.75V66.75ZM8.75 57.85C8.75 59.6454 8.74883 61.0822 8.84354 62.2413C8.93967 63.418 9.14202 64.44 9.62195 65.3819L12.295 64.02C12.0664 63.5714 11.9146 62.9882 11.8336 61.997C11.7512 60.9884 11.75 59.6949 11.75 57.85H8.75ZM14.48 66.205C13.5392 65.7257 12.7743 64.9608 12.295 64.02L9.62195 65.3819C10.3889 66.8872 11.6128 68.1111 13.1181 68.8781L14.48 66.205ZM58.35 69.75C60.1454 69.75 61.5822 69.7512 62.7413 69.6565C63.918 69.5603 64.94 69.358 65.8819 68.8781L64.52 66.205C64.0714 66.4336 63.4882 66.5854 62.497 66.6664C61.4884 66.7488 60.1949 66.75 58.35 66.75V69.75ZM67.25 57.85C67.25 59.6949 67.2488 60.9884 67.1664 61.997C67.0854 62.9882 66.9336 63.5714 66.705 64.02L69.3781 65.3819C69.858 64.44 70.0603 63.418 70.1565 62.2413C70.2512 61.0822 70.25 59.6454 70.25 57.85H67.25ZM65.8819 68.8781C67.3872 68.1111 68.6111 66.8872 69.3781 65.3819L66.705 64.02C66.2257 64.9608 65.4608 65.7257 64.52 66.205L65.8819 68.8781ZM11.75 20.15C11.75 18.3051 11.7512 17.0116 11.8336 16.003C11.9146 15.0118 12.0664 14.4286 12.295 13.98L9.62195 12.6181C9.14202 13.56 8.93967 14.582 8.84354 15.7587C8.74883 16.9178 8.75 18.3546 8.75 20.15H11.75ZM20.65 8.25C18.8546 8.25 17.4178 8.24883 16.2587 8.34354C15.082 8.43967 14.06 8.64202 13.1181 9.12195L14.48 11.795C14.9286 11.5664 15.5118 11.4146 16.503 11.3336C17.5116 11.2512 18.8051 11.25 20.65 11.25V8.25ZM12.295 13.98C12.7743 13.0392 13.5392 12.2743 14.48 11.795L13.1181 9.12195C11.6128 9.88893 10.3889 11.1128 9.62195 12.6181L12.295 13.98ZM39.5 27.5H52.5V24.5H39.5V27.5ZM51 26V39H54V26H51ZM52.375 11.375V6.5H49.375V11.375H52.375ZM64.7385 15.8828L68.1857 12.4357L66.0643 10.3143L62.6172 13.7615L64.7385 15.8828ZM67.1583 29.125H72.0333V26.125H67.1583V29.125ZM16.75 42.375C14.6165 42.375 12.5222 42.2112 10.4789 41.8957L10.0211 44.8605C12.2154 45.1993 14.4627 45.375 16.75 45.375V42.375ZM50.0395 25.1336C42.6569 35.568 30.4983 42.375 16.75 42.375V45.375C31.513 45.375 44.5677 38.0614 52.4885 26.8664L50.0395 25.1336Z" fill="#00B261"/>
</svg>
