<svg width="76" height="74" viewBox="0 0 76 74" fill="none" xmlns="http://www.w3.org/2000/svg">
<path opacity="0.2" d="M47.5 6.5835L51.2323 15.9044C52.1254 18.1347 52.5719 19.2498 53.2663 20.1878C53.8817 21.0191 54.6379 21.7454 55.5033 22.3365C56.4799 23.0035 57.6408 23.4324 59.9627 24.2902L69.6667 27.8752L59.9627 31.4601C57.6408 32.3179 56.4799 32.7468 55.5033 33.4138C54.6379 34.0049 53.8817 34.7312 53.2663 35.5625C52.5719 36.5005 52.1254 37.6157 51.2323 39.8459L47.5 49.1668L43.7677 39.8459C42.8747 37.6156 42.4282 36.5005 41.7338 35.5625C41.1184 34.7312 40.3622 34.0049 39.4967 33.4138C38.5202 32.7468 37.3593 32.3179 35.0374 31.4601L25.3334 27.8752L35.0374 24.2902C37.3593 23.4324 38.5202 23.0035 39.4967 22.3365C40.3622 21.7454 41.1184 21.0191 41.7338 20.1878C42.4282 19.2498 42.8747 18.1347 43.7677 15.9044L47.5 6.5835Z" fill="#9146FF"/>
<path d="M20.5833 43.0833L22.0119 45.8277C22.8526 47.4427 23.273 48.2503 23.8345 48.95C24.3329 49.571 24.9124 50.1277 25.5589 50.6063C26.2874 51.1457 27.1281 51.5495 28.8095 52.357L31.6667 53.7292L28.8095 55.1013C27.1281 55.9089 26.2874 56.3126 25.5589 56.852C24.9124 57.3307 24.3329 57.8874 23.8345 58.5083C23.273 59.2081 22.8526 60.0156 22.0119 61.6307L20.5833 64.375L19.1548 61.6307C18.3141 60.0156 17.8937 59.2081 17.3321 58.5083C16.8338 57.8874 16.2543 57.3307 15.6078 56.852C14.8793 56.3126 14.0386 55.9089 12.3571 55.1013L9.5 53.7292L12.3571 52.357C14.0386 51.5495 14.8793 51.1457 15.6078 50.6063C16.2543 50.1277 16.8338 49.571 17.3321 48.95C17.8937 48.2503 18.3141 47.4427 19.1548 45.8277L20.5833 43.0833Z" stroke="#9146FF" stroke-width="3" stroke-linecap="square"/>
<path d="M45.9167 9.625L49.2092 17.8476C50.1022 20.0778 50.5487 21.1929 51.2431 22.1309C51.8585 22.9622 52.6147 23.6886 53.4802 24.2797C54.4567 24.9466 55.6176 25.3755 57.9395 26.2333L66.5 29.3958L57.9395 32.5584C55.6176 33.4161 54.4567 33.845 53.4802 34.512C52.6147 35.1031 51.8585 35.8294 51.2431 36.6608C50.5487 37.5987 50.1022 38.7139 49.2092 40.9441L45.9167 49.1667L42.6242 40.9441C41.7311 38.7139 41.2846 37.5987 40.5903 36.6608C39.9748 35.8294 39.2187 35.1031 38.3532 34.512C37.3766 33.845 36.2157 33.4161 33.8938 32.5584L25.3333 29.3958L33.8938 26.2333C36.2157 25.3755 37.3766 24.9466 38.3532 24.2797C39.2187 23.6886 39.9748 22.9622 40.5903 22.1309C41.2846 21.1929 41.7311 20.0778 42.6242 17.8476L45.9167 9.625Z" stroke="#9146FF" stroke-width="3" stroke-linecap="square"/>
</svg>
