<svg width="402" height="263" viewBox="0 0 402 263" fill="none" xmlns="http://www.w3.org/2000/svg">
<g clip-path="url(#clip0_82_6922)">
<path d="M231.572 -200.571L-276.263 131.923" stroke="#BD95FF" stroke-width="0.5"/>
<path d="M256.672 -184.138L-251.164 148.356" stroke="#BD95FF" stroke-width="0.5"/>
<path d="M281.77 -167.705L-226.066 164.789" stroke="#BD95FF" stroke-width="0.5"/>
<path d="M306.869 -151.271L-200.966 181.222" stroke="#BD95FF" stroke-width="0.5"/>
<path d="M331.969 -134.839L-175.867 197.655" stroke="#BD95FF" stroke-width="0.5"/>
<path d="M357.066 -118.406L-150.769 214.088" stroke="#BD95FF" stroke-width="0.5"/>
<path d="M382.166 -101.973L-125.669 230.521" stroke="#BD95FF" stroke-width="0.5"/>
<path d="M407.266 -85.54L-100.57 246.954" stroke="#BD95FF" stroke-width="0.5"/>
<path d="M432.363 -69.1064L-75.4721 263.387" stroke="#BD95FF" stroke-width="0.5"/>
<path d="M457.463 -52.6738L-50.3725 279.82" stroke="#BD95FF" stroke-width="0.5"/>
<path d="M482.562 -36.2412L-25.2729 296.253" stroke="#BD95FF" stroke-width="0.5"/>
<path d="M507.66 -19.8076L-0.175222 312.686" stroke="#BD95FF" stroke-width="0.5"/>
<path d="M532.76 -3.375L24.9244 329.119" stroke="#BD95FF" stroke-width="0.5"/>
<path d="M557.859 13.0586L50.024 345.553" stroke="#BD95FF" stroke-width="0.5"/>
<path d="M582.957 29.4912L75.1217 361.985" stroke="#BD95FF" stroke-width="0.5"/>
<path d="M608.057 45.9238L100.221 378.418" stroke="#BD95FF" stroke-width="0.5"/>
<path d="M633.156 62.3574L125.321 394.851" stroke="#BD95FF" stroke-width="0.5"/>
<path d="M658.256 78.79L150.42 411.284" stroke="#BD95FF" stroke-width="0.5"/>
<path d="M683.354 95.2236L175.518 427.718" stroke="#BD95FF" stroke-width="0.5"/>
<path d="M708.453 111.656L200.618 444.15" stroke="#BD95FF" stroke-width="0.5"/>
<path d="M733.553 128.089L225.717 460.583" stroke="#BD95FF" stroke-width="0.5"/>
<path d="M758.65 144.522L250.815 477.016" stroke="#BD95FF" stroke-width="0.5"/>
<path d="M783.75 160.955L275.915 493.449" stroke="#BD95FF" stroke-width="0.5"/>
<path d="M659.203 119.445L209.483 -174.999" stroke="#BD95FF" stroke-width="0.5"/>
<path d="M634.104 135.878L184.384 -158.566" stroke="#BD95FF" stroke-width="0.5"/>
<path d="M609.006 152.312L159.286 -142.133" stroke="#BD95FF" stroke-width="0.5"/>
<path d="M583.906 168.744L134.186 -125.7" stroke="#BD95FF" stroke-width="0.5"/>
<path d="M558.807 185.178L109.087 -109.266" stroke="#BD95FF" stroke-width="0.5"/>
<path d="M533.709 201.61L83.9891 -92.8337" stroke="#BD95FF" stroke-width="0.5"/>
<path d="M508.609 218.043L58.8895 -76.4011" stroke="#BD95FF" stroke-width="0.5"/>
<path d="M483.51 234.477L33.7898 -59.9675" stroke="#BD95FF" stroke-width="0.5"/>
<path d="M458.412 250.909L8.69219 -43.5349" stroke="#BD95FF" stroke-width="0.5"/>
<path d="M433.312 267.343L-16.4074 -27.1013" stroke="#BD95FF" stroke-width="0.5"/>
<path d="M408.213 283.775L-41.507 -10.6687" stroke="#BD95FF" stroke-width="0.5"/>
<path d="M383.113 300.208L-66.6066 5.76389" stroke="#BD95FF" stroke-width="0.5"/>
<path d="M358.016 316.642L-91.7043 22.1975" stroke="#BD95FF" stroke-width="0.5"/>
<path d="M332.916 333.074L-116.804 38.6301" stroke="#BD95FF" stroke-width="0.5"/>
<path d="M307.816 349.507L-141.904 55.0627" stroke="#BD95FF" stroke-width="0.5"/>
<path d="M282.719 365.94L-167.001 71.4963" stroke="#BD95FF" stroke-width="0.5"/>
<path d="M257.619 382.373L-192.101 87.9289" stroke="#BD95FF" stroke-width="0.5"/>
<path d="M232.52 398.807L-217.2 104.363" stroke="#BD95FF" stroke-width="0.5"/>
<path d="M207.422 415.239L-242.298 120.795" stroke="#BD95FF" stroke-width="0.5"/>
<path d="M182.322 431.672L-267.398 137.228" stroke="#BD95FF" stroke-width="0.5"/>
<path d="M157.223 448.105L-292.497 153.661" stroke="#BD95FF" stroke-width="0.5"/>
<path d="M132.125 464.538L-317.595 170.094" stroke="#BD95FF" stroke-width="0.5"/>
<path d="M107.025 480.971L-342.695 186.527" stroke="#BD95FF" stroke-width="0.5"/>
</g>
<defs>
<clipPath id="clip0_82_6922">
<rect width="402" height="263" fill="white"/>
</clipPath>
</defs>
</svg>
